%TF.GenerationSoftware,KiCad,Pcbnew,9.0.2*%
%TF.CreationDate,2026-05-26T23:09:57-03:00*%
%TF.ProjectId,clock_module,636c6f63-6b5f-46d6-9f64-756c652e6b69,rev?*%
%TF.SameCoordinates,PX5b8d800PY58b1140*%
%TF.FileFunction,Copper,L2,Inr*%
%TF.FilePolarity,Positive*%
%FSLAX46Y46*%
G04 Gerber Fmt 4.6, Leading zero omitted, Abs format (unit mm)*
G04 Created by KiCad (PCBNEW 9.0.2) date 2026-05-26 23:09:57*
%MOMM*%
%LPD*%
G01*
G04 APERTURE LIST*
%TA.AperFunction,ComponentPad*%
%ADD10O,2.300000X1.300000*%
%TD*%
%TA.AperFunction,ComponentPad*%
%ADD11O,2.100000X1.300000*%
%TD*%
%TA.AperFunction,ComponentPad*%
%ADD12C,0.500000*%
%TD*%
%TA.AperFunction,ComponentPad*%
%ADD13R,1.700000X1.700000*%
%TD*%
%TA.AperFunction,ComponentPad*%
%ADD14C,1.700000*%
%TD*%
%TA.AperFunction,ComponentPad*%
%ADD15C,1.600000*%
%TD*%
%TA.AperFunction,ViaPad*%
%ADD16C,0.800000*%
%TD*%
G04 APERTURE END LIST*
D10*
%TO.N,unconnected-(J1-SHIELD-PadS1)_1*%
%TO.C,J1*%
X65405000Y11895000D03*
D11*
%TO.N,unconnected-(J1-SHIELD-PadS1)_2*%
X69605000Y11895000D03*
D12*
%TO.N,unconnected-(J1-SHIELD-PadS1)*%
X68225000Y14225000D03*
%TO.N,unconnected-(J1-SHIELD-PadS1)_6*%
X70225000Y14225000D03*
%TO.N,unconnected-(J1-SHIELD-PadS1)_7*%
X68225000Y18225000D03*
%TO.N,unconnected-(J1-SHIELD-PadS1)_8*%
X70225000Y18225000D03*
D10*
%TO.N,unconnected-(J1-SHIELD-PadS1)_3*%
X65405000Y20555000D03*
D11*
%TO.N,unconnected-(J1-SHIELD-PadS1)_5*%
X69605000Y20555000D03*
%TD*%
D13*
%TO.N,/Main Circuit/HLT*%
%TO.C,J2*%
X58400000Y26460000D03*
D14*
%TO.N,/Main Circuit/CLK_SIGNAL*%
X58400000Y29000000D03*
%TO.N,/Main Circuit/!CLK_SIGNAL*%
X58400000Y31540000D03*
%TD*%
D15*
%TO.N,Net-(SW1-A)*%
%TO.C,SW1*%
X15100000Y20500000D03*
%TO.N,GND*%
X13100000Y20500000D03*
%TO.N,Net-(SW1-C)*%
X11100000Y20500000D03*
%TO.N,N/C*%
X15100000Y25500000D03*
X13100000Y25500000D03*
X11100000Y25500000D03*
%TD*%
D16*
%TO.N,GND*%
X54400000Y24600000D03*
X43400000Y27800000D03*
X19200000Y28000000D03*
X60800000Y17800000D03*
X63400000Y12200000D03*
X18800000Y13600000D03*
X18000000Y18200000D03*
X20200000Y29000000D03*
X6000000Y14200000D03*
X34800000Y11200000D03*
X40800000Y16800000D03*
X34600000Y16600000D03*
X33600000Y14200000D03*
X51000000Y9600000D03*
X48000000Y16600000D03*
X42200000Y32800000D03*
X48600000Y27600000D03*
X36800000Y10000000D03*
X52000000Y9600000D03*
X52600000Y32800000D03*
X38000000Y10000000D03*
X35000000Y7800000D03*
X50000000Y9600000D03*
X52800000Y18600000D03*
X56600000Y13800000D03*
X6000000Y13200000D03*
X54600000Y14400000D03*
X22325000Y27800000D03*
X33000000Y27800000D03*
X63600000Y20600000D03*
X59000000Y20000000D03*
X61000000Y8400000D03*
X10800000Y18200000D03*
X13200000Y18800000D03*
X31600000Y32800000D03*
X62000000Y20600000D03*
X14800000Y10200000D03*
%TO.N,+5V*%
X22400000Y22600000D03*
X27000000Y21800000D03*
X47800000Y14800000D03*
X33400000Y11400000D03*
X34800000Y13800000D03*
X47400000Y11200000D03*
%TO.N,/Main Circuit/CLK_SIGNAL*%
X33200000Y32200000D03*
X20200000Y30000000D03*
X43400000Y32200000D03*
X27200000Y30000000D03*
%TO.N,/Main Circuit/HLT*%
X56000000Y26400000D03*
X31600000Y27400000D03*
%TO.N,Net-(SW1-A)*%
X18800000Y14800000D03*
X16800000Y18200000D03*
%TO.N,/Main Circuit/MON_SIGNAL*%
X53600000Y14400000D03*
X53400000Y24600000D03*
%TO.N,/Main Circuit/AST_SIGNAL*%
X47800000Y28400000D03*
X42000000Y16600000D03*
%TO.N,Net-(U4-3B)*%
X38200000Y27800000D03*
X43000000Y29400000D03*
%TO.N,Net-(U4-3A)*%
X33200000Y31000000D03*
X43200000Y31200000D03*
%TO.N,Net-(U4-2Y)*%
X47200000Y19800000D03*
X52600000Y29200000D03*
%TO.N,/Main Circuit/SIG_SELECT*%
X46800000Y23200000D03*
X31000000Y23200000D03*
%TO.N,/Main Circuit/!SIG_SELECT*%
X31800000Y24000000D03*
X48400000Y29800000D03*
%TO.N,Net-(U4-1Y)*%
X50800000Y18200000D03*
X52800000Y27200000D03*
%TD*%
%TA.AperFunction,Conductor*%
%TO.N,GND*%
G36*
X67002855Y34999368D02*
G01*
X67363310Y34982704D01*
X67374700Y34981648D01*
X67729238Y34932192D01*
X67740482Y34930090D01*
X68088944Y34848133D01*
X68099934Y34845006D01*
X68439368Y34731239D01*
X68450022Y34727111D01*
X68777488Y34582521D01*
X68787735Y34577419D01*
X69100452Y34403235D01*
X69110190Y34397206D01*
X69405512Y34194907D01*
X69414652Y34188004D01*
X69690035Y33959329D01*
X69698499Y33951613D01*
X69951612Y33698500D01*
X69959328Y33690036D01*
X70188003Y33414653D01*
X70194906Y33405513D01*
X70397205Y33110191D01*
X70403234Y33100453D01*
X70577418Y32787736D01*
X70582523Y32777483D01*
X70585962Y32769694D01*
X70704924Y32500270D01*
X70727105Y32450036D01*
X70731243Y32439356D01*
X70845001Y32099948D01*
X70848135Y32088932D01*
X70930087Y31740491D01*
X70932192Y31729232D01*
X70981646Y31374708D01*
X70982703Y31363304D01*
X70999368Y31002856D01*
X70999500Y30997129D01*
X70999500Y21486916D01*
X70979815Y21419877D01*
X70927011Y21374122D01*
X70857853Y21364178D01*
X70794297Y21393203D01*
X70787819Y21399235D01*
X70754499Y21432555D01*
X70754494Y21432559D01*
X70607997Y21538994D01*
X70607996Y21538995D01*
X70607994Y21538996D01*
X70556300Y21565336D01*
X70446639Y21621212D01*
X70446636Y21621213D01*
X70274410Y21677171D01*
X70095551Y21705500D01*
X70095546Y21705500D01*
X69114454Y21705500D01*
X69114449Y21705500D01*
X68935589Y21677171D01*
X68763363Y21621213D01*
X68763360Y21621212D01*
X68602002Y21538994D01*
X68455505Y21432559D01*
X68455500Y21432555D01*
X68327445Y21304500D01*
X68327441Y21304495D01*
X68221006Y21157998D01*
X68138788Y20996640D01*
X68138787Y20996637D01*
X68082829Y20824411D01*
X68054500Y20645552D01*
X68054500Y20464449D01*
X68082829Y20285590D01*
X68138787Y20113364D01*
X68138788Y20113361D01*
X68221006Y19952003D01*
X68327441Y19805506D01*
X68327445Y19805501D01*
X68455500Y19677446D01*
X68455505Y19677442D01*
X68583287Y19584604D01*
X68602006Y19571004D01*
X68707484Y19517260D01*
X68763360Y19488789D01*
X68763363Y19488788D01*
X68829486Y19467304D01*
X68935591Y19432829D01*
X69015991Y19420095D01*
X69114449Y19404500D01*
X69114454Y19404500D01*
X70095551Y19404500D01*
X70194009Y19420095D01*
X70274409Y19432829D01*
X70446639Y19488789D01*
X70607994Y19571004D01*
X70754501Y19677447D01*
X70787819Y19710765D01*
X70849142Y19744250D01*
X70918834Y19739266D01*
X70974767Y19697394D01*
X70999184Y19631930D01*
X70999500Y19623084D01*
X70999500Y18811230D01*
X70979815Y18744191D01*
X70927011Y18698436D01*
X70857853Y18688492D01*
X70794297Y18717517D01*
X70787819Y18723549D01*
X70703419Y18807949D01*
X70703415Y18807952D01*
X70580501Y18890081D01*
X70580488Y18890088D01*
X70443917Y18946657D01*
X70443907Y18946660D01*
X70298920Y18975500D01*
X70298918Y18975500D01*
X70151082Y18975500D01*
X70151080Y18975500D01*
X70006092Y18946660D01*
X70006082Y18946657D01*
X69869511Y18890088D01*
X69869498Y18890081D01*
X69746584Y18807952D01*
X69746580Y18807949D01*
X69642051Y18703420D01*
X69642048Y18703416D01*
X69559919Y18580502D01*
X69559912Y18580489D01*
X69503343Y18443918D01*
X69503340Y18443908D01*
X69474500Y18298921D01*
X69474500Y18298918D01*
X69474500Y18151082D01*
X69474500Y18151080D01*
X69474499Y18151080D01*
X69503340Y18006093D01*
X69503343Y18006083D01*
X69559912Y17869512D01*
X69559919Y17869499D01*
X69642048Y17746585D01*
X69642051Y17746581D01*
X69746580Y17642052D01*
X69746584Y17642049D01*
X69869498Y17559920D01*
X69869511Y17559913D01*
X70006082Y17503344D01*
X70006087Y17503342D01*
X70006091Y17503342D01*
X70006092Y17503341D01*
X70151079Y17474500D01*
X70151082Y17474500D01*
X70298920Y17474500D01*
X70396462Y17493904D01*
X70443913Y17503342D01*
X70580495Y17559916D01*
X70703416Y17642049D01*
X70708983Y17647616D01*
X70787819Y17726451D01*
X70849142Y17759936D01*
X70918834Y17754952D01*
X70974767Y17713080D01*
X70999184Y17647616D01*
X70999500Y17638770D01*
X70999500Y14811230D01*
X70979815Y14744191D01*
X70927011Y14698436D01*
X70857853Y14688492D01*
X70794297Y14717517D01*
X70787819Y14723549D01*
X70703419Y14807949D01*
X70703415Y14807952D01*
X70580501Y14890081D01*
X70580488Y14890088D01*
X70443917Y14946657D01*
X70443907Y14946660D01*
X70298920Y14975500D01*
X70298918Y14975500D01*
X70151082Y14975500D01*
X70151080Y14975500D01*
X70006092Y14946660D01*
X70006082Y14946657D01*
X69869511Y14890088D01*
X69869498Y14890081D01*
X69746584Y14807952D01*
X69746580Y14807949D01*
X69642051Y14703420D01*
X69642048Y14703416D01*
X69559919Y14580502D01*
X69559912Y14580489D01*
X69503343Y14443918D01*
X69503340Y14443908D01*
X69474500Y14298921D01*
X69474500Y14298918D01*
X69474500Y14151082D01*
X69474500Y14151080D01*
X69474499Y14151080D01*
X69503340Y14006093D01*
X69503343Y14006083D01*
X69559912Y13869512D01*
X69559919Y13869499D01*
X69642048Y13746585D01*
X69642051Y13746581D01*
X69746580Y13642052D01*
X69746584Y13642049D01*
X69869498Y13559920D01*
X69869511Y13559913D01*
X69946103Y13528188D01*
X70006087Y13503342D01*
X70006091Y13503342D01*
X70006092Y13503341D01*
X70151079Y13474500D01*
X70151082Y13474500D01*
X70298920Y13474500D01*
X70424603Y13499501D01*
X70443913Y13503342D01*
X70580495Y13559916D01*
X70703416Y13642049D01*
X70708983Y13647616D01*
X70787819Y13726451D01*
X70849142Y13759936D01*
X70918834Y13754952D01*
X70974767Y13713080D01*
X70999184Y13647616D01*
X70999500Y13638770D01*
X70999500Y12826916D01*
X70979815Y12759877D01*
X70927011Y12714122D01*
X70857853Y12704178D01*
X70794297Y12733203D01*
X70787819Y12739235D01*
X70754499Y12772555D01*
X70754494Y12772559D01*
X70607997Y12878994D01*
X70607996Y12878995D01*
X70607994Y12878996D01*
X70517073Y12925323D01*
X70446639Y12961212D01*
X70446636Y12961213D01*
X70274410Y13017171D01*
X70095551Y13045500D01*
X70095546Y13045500D01*
X69114454Y13045500D01*
X69114449Y13045500D01*
X68935589Y13017171D01*
X68763363Y12961213D01*
X68763360Y12961212D01*
X68602002Y12878994D01*
X68455505Y12772559D01*
X68455500Y12772555D01*
X68327445Y12644500D01*
X68327441Y12644495D01*
X68221006Y12497998D01*
X68138788Y12336640D01*
X68138787Y12336637D01*
X68082829Y12164411D01*
X68054500Y11985552D01*
X68054500Y11804449D01*
X68082829Y11625590D01*
X68138787Y11453364D01*
X68138788Y11453361D01*
X68221006Y11292003D01*
X68327441Y11145506D01*
X68327445Y11145501D01*
X68455500Y11017446D01*
X68455505Y11017442D01*
X68565755Y10937342D01*
X68602006Y10911004D01*
X68707484Y10857260D01*
X68763360Y10828789D01*
X68763363Y10828788D01*
X68849476Y10800809D01*
X68935591Y10772829D01*
X69018429Y10759709D01*
X69114449Y10744500D01*
X69114454Y10744500D01*
X70095551Y10744500D01*
X70182259Y10758235D01*
X70274409Y10772829D01*
X70446639Y10828789D01*
X70607994Y10911004D01*
X70754501Y11017447D01*
X70787819Y11050765D01*
X70849142Y11084250D01*
X70918834Y11079266D01*
X70974767Y11037394D01*
X70999184Y10971930D01*
X70999500Y10963084D01*
X70999500Y6002872D01*
X70999368Y5997145D01*
X70982703Y5636697D01*
X70981646Y5625293D01*
X70932192Y5270769D01*
X70930087Y5259510D01*
X70848135Y4911069D01*
X70845001Y4900053D01*
X70731243Y4560645D01*
X70727105Y4549965D01*
X70582523Y4222518D01*
X70577418Y4212265D01*
X70403234Y3899548D01*
X70397205Y3889810D01*
X70194906Y3594488D01*
X70188003Y3585348D01*
X69959328Y3309965D01*
X69951612Y3301501D01*
X69698499Y3048388D01*
X69690035Y3040672D01*
X69414652Y2811997D01*
X69405512Y2805094D01*
X69110190Y2602795D01*
X69100452Y2596766D01*
X68787735Y2422582D01*
X68777482Y2417477D01*
X68450035Y2272895D01*
X68439355Y2268757D01*
X68099947Y2154999D01*
X68088931Y2151865D01*
X67740490Y2069913D01*
X67729231Y2067808D01*
X67374707Y2018354D01*
X67363303Y2017297D01*
X67002855Y2000632D01*
X66997128Y2000500D01*
X6002872Y2000500D01*
X5997145Y2000632D01*
X5636696Y2017297D01*
X5625292Y2018354D01*
X5270768Y2067808D01*
X5259509Y2069913D01*
X4911068Y2151865D01*
X4900052Y2154999D01*
X4560644Y2268757D01*
X4549964Y2272895D01*
X4222517Y2417477D01*
X4212264Y2422582D01*
X3899547Y2596766D01*
X3889809Y2602795D01*
X3594487Y2805094D01*
X3585347Y2811997D01*
X3309964Y3040672D01*
X3301500Y3048388D01*
X3048387Y3301501D01*
X3040671Y3309965D01*
X2811994Y3585351D01*
X2805093Y3594488D01*
X2602794Y3889810D01*
X2596765Y3899548D01*
X2507283Y4060197D01*
X2422579Y4212269D01*
X2417476Y4222518D01*
X2414037Y4230307D01*
X2272889Y4549978D01*
X2268761Y4560632D01*
X2154994Y4900066D01*
X2151867Y4911056D01*
X2069910Y5259518D01*
X2067807Y5270769D01*
X2046989Y5420007D01*
X2018352Y5625300D01*
X2017296Y5636697D01*
X2005955Y5881996D01*
X2000632Y5997145D01*
X2000500Y6002872D01*
X2000500Y6118005D01*
X4199500Y6118005D01*
X4199500Y5881996D01*
X4199501Y5881980D01*
X4230306Y5647990D01*
X4291394Y5420007D01*
X4381714Y5201955D01*
X4381719Y5201944D01*
X4452677Y5079043D01*
X4499727Y4997550D01*
X4499729Y4997547D01*
X4499730Y4997546D01*
X4643406Y4810303D01*
X4643412Y4810296D01*
X4810295Y4643413D01*
X4810301Y4643408D01*
X4997550Y4499727D01*
X5128918Y4423882D01*
X5201943Y4381720D01*
X5201948Y4381718D01*
X5201951Y4381716D01*
X5420007Y4291394D01*
X5647986Y4230307D01*
X5881989Y4199500D01*
X5881996Y4199500D01*
X6118004Y4199500D01*
X6118011Y4199500D01*
X6352014Y4230307D01*
X6579993Y4291394D01*
X6798049Y4381716D01*
X7002450Y4499727D01*
X7189699Y4643408D01*
X7356592Y4810301D01*
X7500273Y4997550D01*
X7618284Y5201951D01*
X7708606Y5420007D01*
X7769693Y5647986D01*
X7800500Y5881989D01*
X7800500Y6118005D01*
X65199500Y6118005D01*
X65199500Y5881996D01*
X65199501Y5881980D01*
X65230306Y5647990D01*
X65291394Y5420007D01*
X65381714Y5201955D01*
X65381719Y5201944D01*
X65452677Y5079043D01*
X65499727Y4997550D01*
X65499729Y4997547D01*
X65499730Y4997546D01*
X65643406Y4810303D01*
X65643412Y4810296D01*
X65810295Y4643413D01*
X65810301Y4643408D01*
X65997550Y4499727D01*
X66128918Y4423882D01*
X66201943Y4381720D01*
X66201948Y4381718D01*
X66201951Y4381716D01*
X66420007Y4291394D01*
X66647986Y4230307D01*
X66881989Y4199500D01*
X66881996Y4199500D01*
X67118004Y4199500D01*
X67118011Y4199500D01*
X67352014Y4230307D01*
X67579993Y4291394D01*
X67798049Y4381716D01*
X68002450Y4499727D01*
X68189699Y4643408D01*
X68356592Y4810301D01*
X68500273Y4997550D01*
X68618284Y5201951D01*
X68708606Y5420007D01*
X68769693Y5647986D01*
X68800500Y5881989D01*
X68800500Y6118011D01*
X68769693Y6352014D01*
X68708606Y6579993D01*
X68618284Y6798049D01*
X68618282Y6798052D01*
X68618280Y6798057D01*
X68576118Y6871082D01*
X68500273Y7002450D01*
X68356592Y7189699D01*
X68356587Y7189705D01*
X68189704Y7356588D01*
X68189697Y7356594D01*
X68002454Y7500270D01*
X68002453Y7500271D01*
X68002450Y7500273D01*
X67920957Y7547323D01*
X67798056Y7618281D01*
X67798045Y7618286D01*
X67579993Y7708606D01*
X67352010Y7769694D01*
X67118020Y7800499D01*
X67118017Y7800500D01*
X67118011Y7800500D01*
X66881989Y7800500D01*
X66881983Y7800500D01*
X66881979Y7800499D01*
X66647989Y7769694D01*
X66420006Y7708606D01*
X66201954Y7618286D01*
X66201943Y7618281D01*
X65997545Y7500270D01*
X65810302Y7356594D01*
X65810295Y7356588D01*
X65643412Y7189705D01*
X65643406Y7189698D01*
X65499730Y7002455D01*
X65381719Y6798057D01*
X65381714Y6798046D01*
X65291394Y6579994D01*
X65230306Y6352011D01*
X65199501Y6118021D01*
X65199500Y6118005D01*
X7800500Y6118005D01*
X7800500Y6118011D01*
X7769693Y6352014D01*
X7708606Y6579993D01*
X7618284Y6798049D01*
X7618282Y6798052D01*
X7618280Y6798057D01*
X7576118Y6871082D01*
X7500273Y7002450D01*
X7356592Y7189699D01*
X7356587Y7189705D01*
X7189704Y7356588D01*
X7189697Y7356594D01*
X7002454Y7500270D01*
X7002453Y7500271D01*
X7002450Y7500273D01*
X6920957Y7547323D01*
X6798056Y7618281D01*
X6798045Y7618286D01*
X6579993Y7708606D01*
X6352010Y7769694D01*
X6118020Y7800499D01*
X6118017Y7800500D01*
X6118011Y7800500D01*
X5881989Y7800500D01*
X5881983Y7800500D01*
X5881979Y7800499D01*
X5647989Y7769694D01*
X5420006Y7708606D01*
X5201954Y7618286D01*
X5201943Y7618281D01*
X4997545Y7500270D01*
X4810302Y7356594D01*
X4810295Y7356588D01*
X4643412Y7189705D01*
X4643406Y7189698D01*
X4499730Y7002455D01*
X4381719Y6798057D01*
X4381714Y6798046D01*
X4291394Y6579994D01*
X4230306Y6352011D01*
X4199501Y6118021D01*
X4199500Y6118005D01*
X2000500Y6118005D01*
X2000500Y11488696D01*
X32499500Y11488696D01*
X32499500Y11311305D01*
X32534103Y11137342D01*
X32534106Y11137333D01*
X32601983Y10973460D01*
X32601990Y10973447D01*
X32700535Y10825966D01*
X32700538Y10825962D01*
X32825961Y10700539D01*
X32825965Y10700536D01*
X32973446Y10601991D01*
X32973459Y10601984D01*
X33096363Y10551077D01*
X33137334Y10534106D01*
X33137336Y10534106D01*
X33137341Y10534104D01*
X33311304Y10499501D01*
X33311307Y10499500D01*
X33311309Y10499500D01*
X33488693Y10499500D01*
X33488694Y10499501D01*
X33546682Y10511036D01*
X33662658Y10534104D01*
X33662661Y10534106D01*
X33662666Y10534106D01*
X33826547Y10601987D01*
X33974035Y10700536D01*
X34099464Y10825965D01*
X34198013Y10973453D01*
X34265894Y11137334D01*
X34267519Y11145499D01*
X34296002Y11288696D01*
X46499500Y11288696D01*
X46499500Y11111305D01*
X46534103Y10937342D01*
X46534106Y10937333D01*
X46601983Y10773460D01*
X46601990Y10773447D01*
X46700535Y10625966D01*
X46700538Y10625962D01*
X46825961Y10500539D01*
X46825965Y10500536D01*
X46973446Y10401991D01*
X46973459Y10401984D01*
X47096363Y10351077D01*
X47137334Y10334106D01*
X47137336Y10334106D01*
X47137341Y10334104D01*
X47311304Y10299501D01*
X47311307Y10299500D01*
X47311309Y10299500D01*
X47488693Y10299500D01*
X47488694Y10299501D01*
X47546682Y10311036D01*
X47662658Y10334104D01*
X47662661Y10334106D01*
X47662666Y10334106D01*
X47826547Y10401987D01*
X47974035Y10500536D01*
X48099464Y10625965D01*
X48198013Y10773453D01*
X48265894Y10937334D01*
X48273078Y10973447D01*
X48294126Y11079266D01*
X48300500Y11111309D01*
X48300500Y11288691D01*
X48300500Y11288694D01*
X48300499Y11288696D01*
X48265896Y11462659D01*
X48265893Y11462668D01*
X48198016Y11626541D01*
X48198009Y11626554D01*
X48099464Y11774035D01*
X48099461Y11774039D01*
X47974038Y11899462D01*
X47974034Y11899465D01*
X47845197Y11985552D01*
X63754500Y11985552D01*
X63754500Y11804449D01*
X63782829Y11625590D01*
X63838787Y11453364D01*
X63838788Y11453361D01*
X63921006Y11292003D01*
X64027441Y11145506D01*
X64027445Y11145501D01*
X64155500Y11017446D01*
X64155505Y11017442D01*
X64265755Y10937342D01*
X64302006Y10911004D01*
X64407484Y10857260D01*
X64463360Y10828789D01*
X64463363Y10828788D01*
X64549476Y10800809D01*
X64635591Y10772829D01*
X64718429Y10759709D01*
X64814449Y10744500D01*
X64814454Y10744500D01*
X65995551Y10744500D01*
X66082259Y10758235D01*
X66174409Y10772829D01*
X66346639Y10828789D01*
X66507994Y10911004D01*
X66654501Y11017447D01*
X66782553Y11145499D01*
X66888996Y11292006D01*
X66971211Y11453361D01*
X67027171Y11625591D01*
X67041765Y11717741D01*
X67055500Y11804449D01*
X67055500Y11985552D01*
X67039019Y12089603D01*
X67027171Y12164409D01*
X66971211Y12336639D01*
X66971211Y12336640D01*
X66942740Y12392516D01*
X66888996Y12497994D01*
X66875396Y12516713D01*
X66782558Y12644495D01*
X66782554Y12644500D01*
X66654499Y12772555D01*
X66654494Y12772559D01*
X66507995Y12878996D01*
X66417075Y12925323D01*
X66366280Y12973298D01*
X66349485Y13041119D01*
X66365984Y13097807D01*
X66391392Y13141814D01*
X66425500Y13269108D01*
X66425500Y13400892D01*
X66391392Y13528186D01*
X66325500Y13642314D01*
X66232314Y13735500D01*
X66175250Y13768446D01*
X66118187Y13801392D01*
X66054539Y13818446D01*
X65990892Y13835500D01*
X65859108Y13835500D01*
X65731812Y13801392D01*
X65617686Y13735500D01*
X65617683Y13735498D01*
X65524502Y13642317D01*
X65524500Y13642314D01*
X65458608Y13528188D01*
X65444223Y13474500D01*
X65424500Y13400892D01*
X65424500Y13269108D01*
X65442590Y13201592D01*
X65440928Y13131744D01*
X65401766Y13073881D01*
X65337537Y13046377D01*
X65322816Y13045500D01*
X64814449Y13045500D01*
X64635589Y13017171D01*
X64463363Y12961213D01*
X64463360Y12961212D01*
X64302002Y12878994D01*
X64155505Y12772559D01*
X64155500Y12772555D01*
X64027445Y12644500D01*
X64027441Y12644495D01*
X63921006Y12497998D01*
X63838788Y12336640D01*
X63838787Y12336637D01*
X63782829Y12164411D01*
X63754500Y11985552D01*
X47845197Y11985552D01*
X47826553Y11998010D01*
X47826540Y11998017D01*
X47662667Y12065894D01*
X47662658Y12065897D01*
X47488694Y12100500D01*
X47488691Y12100500D01*
X47311309Y12100500D01*
X47311306Y12100500D01*
X47137341Y12065897D01*
X47137332Y12065894D01*
X46973459Y11998017D01*
X46973446Y11998010D01*
X46825965Y11899465D01*
X46825961Y11899462D01*
X46700538Y11774039D01*
X46700535Y11774035D01*
X46601990Y11626554D01*
X46601983Y11626541D01*
X46534106Y11462668D01*
X46534103Y11462659D01*
X46499500Y11288696D01*
X34296002Y11288696D01*
X34300499Y11311304D01*
X34300500Y11311308D01*
X34300500Y11488694D01*
X34300499Y11488696D01*
X34265896Y11662659D01*
X34265893Y11662668D01*
X34198016Y11826541D01*
X34198009Y11826554D01*
X34099464Y11974035D01*
X34099461Y11974039D01*
X33974038Y12099462D01*
X33974034Y12099465D01*
X33826553Y12198010D01*
X33826540Y12198017D01*
X33662667Y12265894D01*
X33662658Y12265897D01*
X33488694Y12300500D01*
X33488691Y12300500D01*
X33311309Y12300500D01*
X33311306Y12300500D01*
X33137341Y12265897D01*
X33137332Y12265894D01*
X32973459Y12198017D01*
X32973446Y12198010D01*
X32825965Y12099465D01*
X32825961Y12099462D01*
X32700538Y11974039D01*
X32700535Y11974035D01*
X32601990Y11826554D01*
X32601983Y11826541D01*
X32534106Y11662668D01*
X32534103Y11662659D01*
X32499500Y11488696D01*
X2000500Y11488696D01*
X2000500Y13888696D01*
X33899500Y13888696D01*
X33899500Y13711305D01*
X33934103Y13537342D01*
X33934106Y13537333D01*
X34001983Y13373460D01*
X34001990Y13373447D01*
X34100535Y13225966D01*
X34100538Y13225962D01*
X34225961Y13100539D01*
X34225965Y13100536D01*
X34373446Y13001991D01*
X34373459Y13001984D01*
X34471896Y12961211D01*
X34537334Y12934106D01*
X34537336Y12934106D01*
X34537341Y12934104D01*
X34711304Y12899501D01*
X34711307Y12899500D01*
X34711309Y12899500D01*
X34888693Y12899500D01*
X34888694Y12899501D01*
X34946682Y12911036D01*
X35062658Y12934104D01*
X35062661Y12934106D01*
X35062666Y12934106D01*
X35226547Y13001987D01*
X35374035Y13100536D01*
X35499464Y13225965D01*
X35598013Y13373453D01*
X35665894Y13537334D01*
X35670386Y13559913D01*
X35700499Y13711305D01*
X35700500Y13711307D01*
X35700500Y13888694D01*
X35700499Y13888696D01*
X35665896Y14062659D01*
X35665893Y14062668D01*
X35598016Y14226541D01*
X35598009Y14226554D01*
X35499464Y14374035D01*
X35499461Y14374039D01*
X35374038Y14499462D01*
X35374034Y14499465D01*
X35226553Y14598010D01*
X35226540Y14598017D01*
X35062667Y14665894D01*
X35062658Y14665897D01*
X34888694Y14700500D01*
X34888691Y14700500D01*
X34711309Y14700500D01*
X34711306Y14700500D01*
X34537341Y14665897D01*
X34537332Y14665894D01*
X34373459Y14598017D01*
X34373446Y14598010D01*
X34225965Y14499465D01*
X34225961Y14499462D01*
X34100538Y14374039D01*
X34100535Y14374035D01*
X34001990Y14226554D01*
X34001983Y14226541D01*
X33934106Y14062668D01*
X33934103Y14062659D01*
X33899500Y13888696D01*
X2000500Y13888696D01*
X2000500Y14888696D01*
X17899500Y14888696D01*
X17899500Y14711305D01*
X17934103Y14537342D01*
X17934106Y14537333D01*
X18001983Y14373460D01*
X18001990Y14373447D01*
X18100535Y14225966D01*
X18100538Y14225962D01*
X18225961Y14100539D01*
X18225965Y14100536D01*
X18373446Y14001991D01*
X18373459Y14001984D01*
X18442355Y13973447D01*
X18537334Y13934106D01*
X18537336Y13934106D01*
X18537341Y13934104D01*
X18711304Y13899501D01*
X18711307Y13899500D01*
X18711309Y13899500D01*
X18888693Y13899500D01*
X18888694Y13899501D01*
X18946682Y13911036D01*
X19062658Y13934104D01*
X19062661Y13934106D01*
X19062666Y13934106D01*
X19226547Y14001987D01*
X19374035Y14100536D01*
X19499464Y14225965D01*
X19598013Y14373453D01*
X19665894Y14537334D01*
X19674480Y14580495D01*
X19700499Y14711305D01*
X19700500Y14711307D01*
X19700500Y14888694D01*
X19700499Y14888696D01*
X46899500Y14888696D01*
X46899500Y14711305D01*
X46934103Y14537342D01*
X46934106Y14537333D01*
X47001983Y14373460D01*
X47001990Y14373447D01*
X47100535Y14225966D01*
X47100538Y14225962D01*
X47225961Y14100539D01*
X47225965Y14100536D01*
X47373446Y14001991D01*
X47373459Y14001984D01*
X47442355Y13973447D01*
X47537334Y13934106D01*
X47537336Y13934106D01*
X47537341Y13934104D01*
X47711304Y13899501D01*
X47711307Y13899500D01*
X47711309Y13899500D01*
X47888693Y13899500D01*
X47888694Y13899501D01*
X47946682Y13911036D01*
X48062658Y13934104D01*
X48062661Y13934106D01*
X48062666Y13934106D01*
X48226547Y14001987D01*
X48374035Y14100536D01*
X48499464Y14225965D01*
X48598013Y14373453D01*
X48645748Y14488696D01*
X52699500Y14488696D01*
X52699500Y14311305D01*
X52734103Y14137342D01*
X52734106Y14137333D01*
X52801983Y13973460D01*
X52801990Y13973447D01*
X52900535Y13825966D01*
X52900538Y13825962D01*
X53025961Y13700539D01*
X53025965Y13700536D01*
X53173446Y13601991D01*
X53173459Y13601984D01*
X53275013Y13559920D01*
X53337334Y13534106D01*
X53337336Y13534106D01*
X53337341Y13534104D01*
X53511304Y13499501D01*
X53511307Y13499500D01*
X53511309Y13499500D01*
X53688693Y13499500D01*
X53688694Y13499501D01*
X53746682Y13511036D01*
X53862658Y13534104D01*
X53862661Y13534106D01*
X53862666Y13534106D01*
X54026547Y13601987D01*
X54174035Y13700536D01*
X54299464Y13825965D01*
X54398013Y13973453D01*
X54465894Y14137334D01*
X54468629Y14151080D01*
X67474499Y14151080D01*
X67503340Y14006093D01*
X67503343Y14006083D01*
X67559912Y13869512D01*
X67559919Y13869499D01*
X67642048Y13746585D01*
X67642051Y13746581D01*
X67746580Y13642052D01*
X67746584Y13642049D01*
X67869498Y13559920D01*
X67869511Y13559913D01*
X67946103Y13528188D01*
X68006087Y13503342D01*
X68006091Y13503342D01*
X68006092Y13503341D01*
X68151079Y13474500D01*
X68151082Y13474500D01*
X68298920Y13474500D01*
X68424603Y13499501D01*
X68443913Y13503342D01*
X68580495Y13559916D01*
X68703416Y13642049D01*
X68807951Y13746584D01*
X68890084Y13869505D01*
X68946658Y14006087D01*
X68972765Y14137333D01*
X68975500Y14151080D01*
X68975500Y14298921D01*
X68946659Y14443908D01*
X68946658Y14443909D01*
X68946658Y14443913D01*
X68946656Y14443918D01*
X68890087Y14580489D01*
X68890080Y14580502D01*
X68807951Y14703416D01*
X68807948Y14703420D01*
X68703419Y14807949D01*
X68703415Y14807952D01*
X68580501Y14890081D01*
X68580488Y14890088D01*
X68443917Y14946657D01*
X68443907Y14946660D01*
X68298920Y14975500D01*
X68298918Y14975500D01*
X68151082Y14975500D01*
X68151080Y14975500D01*
X68006092Y14946660D01*
X68006082Y14946657D01*
X67869511Y14890088D01*
X67869498Y14890081D01*
X67746584Y14807952D01*
X67746580Y14807949D01*
X67642051Y14703420D01*
X67642048Y14703416D01*
X67559919Y14580502D01*
X67559912Y14580489D01*
X67503343Y14443918D01*
X67503340Y14443908D01*
X67474500Y14298921D01*
X67474500Y14298918D01*
X67474500Y14151082D01*
X67474500Y14151080D01*
X67474499Y14151080D01*
X54468629Y14151080D01*
X54500499Y14311303D01*
X54500500Y14311309D01*
X54500500Y14488694D01*
X54500499Y14488696D01*
X54465896Y14662659D01*
X54465893Y14662668D01*
X54398016Y14826541D01*
X54398009Y14826554D01*
X54299464Y14974035D01*
X54299461Y14974039D01*
X54174038Y15099462D01*
X54174034Y15099465D01*
X54026553Y15198010D01*
X54026540Y15198017D01*
X53862667Y15265894D01*
X53862658Y15265897D01*
X53688694Y15300500D01*
X53688691Y15300500D01*
X53511309Y15300500D01*
X53511306Y15300500D01*
X53337341Y15265897D01*
X53337332Y15265894D01*
X53173459Y15198017D01*
X53173446Y15198010D01*
X53025965Y15099465D01*
X53025961Y15099462D01*
X52900538Y14974039D01*
X52900535Y14974035D01*
X52801990Y14826554D01*
X52801983Y14826541D01*
X52734106Y14662668D01*
X52734103Y14662659D01*
X52699500Y14488696D01*
X48645748Y14488696D01*
X48665894Y14537334D01*
X48674480Y14580495D01*
X48700499Y14711305D01*
X48700500Y14711307D01*
X48700500Y14888694D01*
X48700499Y14888696D01*
X48665896Y15062659D01*
X48665893Y15062668D01*
X48598016Y15226541D01*
X48598009Y15226554D01*
X48499464Y15374035D01*
X48499461Y15374039D01*
X48374038Y15499462D01*
X48374034Y15499465D01*
X48226553Y15598010D01*
X48226540Y15598017D01*
X48062667Y15665894D01*
X48062658Y15665897D01*
X47888694Y15700500D01*
X47888691Y15700500D01*
X47711309Y15700500D01*
X47711306Y15700500D01*
X47537341Y15665897D01*
X47537332Y15665894D01*
X47373459Y15598017D01*
X47373446Y15598010D01*
X47225965Y15499465D01*
X47225961Y15499462D01*
X47100538Y15374039D01*
X47100535Y15374035D01*
X47001990Y15226554D01*
X47001983Y15226541D01*
X46934106Y15062668D01*
X46934103Y15062659D01*
X46899500Y14888696D01*
X19700499Y14888696D01*
X19665896Y15062659D01*
X19665893Y15062668D01*
X19598016Y15226541D01*
X19598009Y15226554D01*
X19499464Y15374035D01*
X19499461Y15374039D01*
X19374038Y15499462D01*
X19374034Y15499465D01*
X19226553Y15598010D01*
X19226540Y15598017D01*
X19062667Y15665894D01*
X19062658Y15665897D01*
X18888694Y15700500D01*
X18888691Y15700500D01*
X18711309Y15700500D01*
X18711306Y15700500D01*
X18537341Y15665897D01*
X18537332Y15665894D01*
X18373459Y15598017D01*
X18373446Y15598010D01*
X18225965Y15499465D01*
X18225961Y15499462D01*
X18100538Y15374039D01*
X18100535Y15374035D01*
X18001990Y15226554D01*
X18001983Y15226541D01*
X17934106Y15062668D01*
X17934103Y15062659D01*
X17899500Y14888696D01*
X2000500Y14888696D01*
X2000500Y16688696D01*
X41099500Y16688696D01*
X41099500Y16511305D01*
X41134103Y16337342D01*
X41134106Y16337333D01*
X41201983Y16173460D01*
X41201990Y16173447D01*
X41300535Y16025966D01*
X41300538Y16025962D01*
X41425961Y15900539D01*
X41425965Y15900536D01*
X41573446Y15801991D01*
X41573459Y15801984D01*
X41696363Y15751077D01*
X41737334Y15734106D01*
X41737336Y15734106D01*
X41737341Y15734104D01*
X41911304Y15699501D01*
X41911307Y15699500D01*
X41911309Y15699500D01*
X42088693Y15699500D01*
X42088694Y15699501D01*
X42146682Y15711036D01*
X42262658Y15734104D01*
X42262661Y15734106D01*
X42262666Y15734106D01*
X42426547Y15801987D01*
X42574035Y15900536D01*
X42699464Y16025965D01*
X42798013Y16173453D01*
X42865894Y16337334D01*
X42900500Y16511309D01*
X42900500Y16688691D01*
X42900500Y16688694D01*
X42900499Y16688696D01*
X42865896Y16862659D01*
X42865893Y16862668D01*
X42798016Y17026541D01*
X42798009Y17026554D01*
X42699464Y17174035D01*
X42699461Y17174039D01*
X42574038Y17299462D01*
X42574034Y17299465D01*
X42426553Y17398010D01*
X42426540Y17398017D01*
X42262667Y17465894D01*
X42262658Y17465897D01*
X42088694Y17500500D01*
X42088691Y17500500D01*
X41911309Y17500500D01*
X41911306Y17500500D01*
X41737341Y17465897D01*
X41737332Y17465894D01*
X41573459Y17398017D01*
X41573446Y17398010D01*
X41425965Y17299465D01*
X41425961Y17299462D01*
X41300538Y17174039D01*
X41300535Y17174035D01*
X41201990Y17026554D01*
X41201983Y17026541D01*
X41134106Y16862668D01*
X41134103Y16862659D01*
X41099500Y16688696D01*
X2000500Y16688696D01*
X2000500Y18288696D01*
X15899500Y18288696D01*
X15899500Y18111305D01*
X15934103Y17937342D01*
X15934106Y17937333D01*
X16001983Y17773460D01*
X16001990Y17773447D01*
X16100535Y17625966D01*
X16100538Y17625962D01*
X16225961Y17500539D01*
X16225965Y17500536D01*
X16373446Y17401991D01*
X16373459Y17401984D01*
X16496363Y17351077D01*
X16537334Y17334106D01*
X16537336Y17334106D01*
X16537341Y17334104D01*
X16711304Y17299501D01*
X16711307Y17299500D01*
X16711309Y17299500D01*
X16888693Y17299500D01*
X16888694Y17299501D01*
X16946682Y17311036D01*
X17062658Y17334104D01*
X17062661Y17334106D01*
X17062666Y17334106D01*
X17216953Y17398013D01*
X17226540Y17401984D01*
X17226540Y17401985D01*
X17226547Y17401987D01*
X17374035Y17500536D01*
X17499464Y17625965D01*
X17598013Y17773453D01*
X17665894Y17937334D01*
X17700500Y18111309D01*
X17700500Y18288691D01*
X17700500Y18288694D01*
X17700499Y18288696D01*
X49899500Y18288696D01*
X49899500Y18111305D01*
X49934103Y17937342D01*
X49934106Y17937333D01*
X50001983Y17773460D01*
X50001990Y17773447D01*
X50100535Y17625966D01*
X50100538Y17625962D01*
X50225961Y17500539D01*
X50225965Y17500536D01*
X50373446Y17401991D01*
X50373459Y17401984D01*
X50496363Y17351077D01*
X50537334Y17334106D01*
X50537336Y17334106D01*
X50537341Y17334104D01*
X50711304Y17299501D01*
X50711307Y17299500D01*
X50711309Y17299500D01*
X50888693Y17299500D01*
X50888694Y17299501D01*
X50946682Y17311036D01*
X51062658Y17334104D01*
X51062661Y17334106D01*
X51062666Y17334106D01*
X51216953Y17398013D01*
X51226540Y17401984D01*
X51226540Y17401985D01*
X51226547Y17401987D01*
X51374035Y17500536D01*
X51499464Y17625965D01*
X51598013Y17773453D01*
X51665894Y17937334D01*
X51700500Y18111309D01*
X51700500Y18151080D01*
X67474499Y18151080D01*
X67503340Y18006093D01*
X67503343Y18006083D01*
X67559912Y17869512D01*
X67559919Y17869499D01*
X67642048Y17746585D01*
X67642051Y17746581D01*
X67746580Y17642052D01*
X67746584Y17642049D01*
X67869498Y17559920D01*
X67869511Y17559913D01*
X68006082Y17503344D01*
X68006087Y17503342D01*
X68006091Y17503342D01*
X68006092Y17503341D01*
X68151079Y17474500D01*
X68151082Y17474500D01*
X68298920Y17474500D01*
X68396462Y17493904D01*
X68443913Y17503342D01*
X68580495Y17559916D01*
X68703416Y17642049D01*
X68807951Y17746584D01*
X68890084Y17869505D01*
X68946658Y18006087D01*
X68967588Y18111307D01*
X68975500Y18151080D01*
X68975500Y18298921D01*
X68946659Y18443908D01*
X68946658Y18443909D01*
X68946658Y18443913D01*
X68938890Y18462666D01*
X68890087Y18580489D01*
X68890080Y18580502D01*
X68807951Y18703416D01*
X68807948Y18703420D01*
X68703419Y18807949D01*
X68703415Y18807952D01*
X68580501Y18890081D01*
X68580488Y18890088D01*
X68443917Y18946657D01*
X68443907Y18946660D01*
X68298920Y18975500D01*
X68298918Y18975500D01*
X68151082Y18975500D01*
X68151080Y18975500D01*
X68006092Y18946660D01*
X68006082Y18946657D01*
X67869511Y18890088D01*
X67869498Y18890081D01*
X67746584Y18807952D01*
X67746580Y18807949D01*
X67642051Y18703420D01*
X67642048Y18703416D01*
X67559919Y18580502D01*
X67559912Y18580489D01*
X67503343Y18443918D01*
X67503340Y18443908D01*
X67474500Y18298921D01*
X67474500Y18298918D01*
X67474500Y18151082D01*
X67474500Y18151080D01*
X67474499Y18151080D01*
X51700500Y18151080D01*
X51700500Y18288691D01*
X51700500Y18288695D01*
X51665896Y18462659D01*
X51665893Y18462668D01*
X51598016Y18626541D01*
X51598009Y18626554D01*
X51499464Y18774035D01*
X51499461Y18774039D01*
X51374038Y18899462D01*
X51374034Y18899465D01*
X51226553Y18998010D01*
X51226540Y18998017D01*
X51062667Y19065894D01*
X51062658Y19065897D01*
X50888694Y19100500D01*
X50888691Y19100500D01*
X50711309Y19100500D01*
X50711306Y19100500D01*
X50537341Y19065897D01*
X50537332Y19065894D01*
X50373459Y18998017D01*
X50373446Y18998010D01*
X50225965Y18899465D01*
X50225961Y18899462D01*
X50100538Y18774039D01*
X50100535Y18774035D01*
X50001990Y18626554D01*
X50001983Y18626541D01*
X49934106Y18462668D01*
X49934103Y18462659D01*
X49899500Y18288696D01*
X17700499Y18288696D01*
X17665896Y18462659D01*
X17665893Y18462668D01*
X17598016Y18626541D01*
X17598009Y18626554D01*
X17499464Y18774035D01*
X17499461Y18774039D01*
X17374038Y18899462D01*
X17374034Y18899465D01*
X17226553Y18998010D01*
X17226540Y18998017D01*
X17062667Y19065894D01*
X17062658Y19065897D01*
X16888694Y19100500D01*
X16888691Y19100500D01*
X16711309Y19100500D01*
X16711306Y19100500D01*
X16537341Y19065897D01*
X16537332Y19065894D01*
X16373459Y18998017D01*
X16373446Y18998010D01*
X16225965Y18899465D01*
X16225961Y18899462D01*
X16100538Y18774039D01*
X16100535Y18774035D01*
X16001990Y18626554D01*
X16001983Y18626541D01*
X15934106Y18462668D01*
X15934103Y18462659D01*
X15899500Y18288696D01*
X2000500Y18288696D01*
X2000500Y20602352D01*
X9799500Y20602352D01*
X9799500Y20397649D01*
X9831522Y20195466D01*
X9894781Y20000777D01*
X9987715Y19818387D01*
X10108028Y19652787D01*
X10252786Y19508029D01*
X10395284Y19404500D01*
X10418390Y19387713D01*
X10527711Y19332011D01*
X10600776Y19294782D01*
X10600778Y19294782D01*
X10600781Y19294780D01*
X10699042Y19262853D01*
X10795465Y19231523D01*
X10830557Y19225965D01*
X10997648Y19199500D01*
X10997649Y19199500D01*
X11202351Y19199500D01*
X11202352Y19199500D01*
X11404534Y19231523D01*
X11599219Y19294780D01*
X11781610Y19387713D01*
X11891159Y19467304D01*
X11947213Y19508029D01*
X11947215Y19508032D01*
X11947219Y19508034D01*
X12091966Y19652781D01*
X12091968Y19652785D01*
X12091971Y19652787D01*
X12144732Y19725410D01*
X12212287Y19818390D01*
X12305220Y20000781D01*
X12323934Y20058376D01*
X12354183Y20107738D01*
X12657861Y20411416D01*
X12680667Y20326306D01*
X12739910Y20223694D01*
X12823694Y20139910D01*
X12926306Y20080667D01*
X13011414Y20057863D01*
X12374076Y19420526D01*
X12418650Y19388141D01*
X12600968Y19295245D01*
X12795582Y19232010D01*
X12997683Y19200000D01*
X13202317Y19200000D01*
X13404417Y19232010D01*
X13599031Y19295245D01*
X13781349Y19388141D01*
X13825921Y19420526D01*
X13188585Y20057862D01*
X13273694Y20080667D01*
X13376306Y20139910D01*
X13460090Y20223694D01*
X13519333Y20326306D01*
X13542138Y20411415D01*
X13845816Y20107737D01*
X13876065Y20058376D01*
X13894779Y20000781D01*
X13987715Y19818387D01*
X14108028Y19652787D01*
X14252786Y19508029D01*
X14395284Y19404500D01*
X14418390Y19387713D01*
X14527711Y19332011D01*
X14600776Y19294782D01*
X14600778Y19294782D01*
X14600781Y19294780D01*
X14699042Y19262853D01*
X14795465Y19231523D01*
X14830557Y19225965D01*
X14997648Y19199500D01*
X14997649Y19199500D01*
X15202351Y19199500D01*
X15202352Y19199500D01*
X15404534Y19231523D01*
X15599219Y19294780D01*
X15781610Y19387713D01*
X15891159Y19467304D01*
X15947213Y19508029D01*
X15947215Y19508032D01*
X15947219Y19508034D01*
X16091966Y19652781D01*
X16091968Y19652785D01*
X16091971Y19652787D01*
X16212284Y19818386D01*
X16212285Y19818387D01*
X16212287Y19818390D01*
X16248110Y19888696D01*
X46299500Y19888696D01*
X46299500Y19711305D01*
X46334103Y19537342D01*
X46334106Y19537333D01*
X46401983Y19373460D01*
X46401990Y19373447D01*
X46500535Y19225966D01*
X46500538Y19225962D01*
X46625961Y19100539D01*
X46625965Y19100536D01*
X46773446Y19001991D01*
X46773459Y19001984D01*
X46896363Y18951077D01*
X46937334Y18934106D01*
X46937336Y18934106D01*
X46937341Y18934104D01*
X47111304Y18899501D01*
X47111307Y18899500D01*
X47111309Y18899500D01*
X47288693Y18899500D01*
X47288694Y18899501D01*
X47346682Y18911036D01*
X47462658Y18934104D01*
X47462661Y18934106D01*
X47462666Y18934106D01*
X47616953Y18998013D01*
X47626540Y19001984D01*
X47626540Y19001985D01*
X47626547Y19001987D01*
X47774035Y19100536D01*
X47899464Y19225965D01*
X47998013Y19373453D01*
X48065894Y19537334D01*
X48072592Y19571004D01*
X48100499Y19711305D01*
X48100500Y19711307D01*
X48100500Y19888694D01*
X48100499Y19888696D01*
X48065896Y20062659D01*
X48065893Y20062668D01*
X47998016Y20226541D01*
X47998009Y20226554D01*
X47899464Y20374035D01*
X47899461Y20374039D01*
X47774038Y20499462D01*
X47774034Y20499465D01*
X47702421Y20547316D01*
X47626553Y20598010D01*
X47626540Y20598017D01*
X47511778Y20645552D01*
X63754500Y20645552D01*
X63754500Y20464449D01*
X63782829Y20285590D01*
X63838787Y20113364D01*
X63838788Y20113361D01*
X63921006Y19952003D01*
X64027441Y19805506D01*
X64027445Y19805501D01*
X64155500Y19677446D01*
X64155505Y19677442D01*
X64283287Y19584604D01*
X64302006Y19571004D01*
X64407484Y19517260D01*
X64463360Y19488789D01*
X64463363Y19488788D01*
X64529486Y19467304D01*
X64635591Y19432829D01*
X64715991Y19420095D01*
X64814449Y19404500D01*
X64814454Y19404500D01*
X65322816Y19404500D01*
X65389855Y19384815D01*
X65435610Y19332011D01*
X65445554Y19262853D01*
X65442593Y19248420D01*
X65424500Y19180892D01*
X65424500Y19180890D01*
X65424500Y19049109D01*
X65458608Y18921813D01*
X65471513Y18899462D01*
X65524500Y18807686D01*
X65617686Y18714500D01*
X65731814Y18648608D01*
X65859108Y18614500D01*
X65859110Y18614500D01*
X65990890Y18614500D01*
X65990892Y18614500D01*
X66118186Y18648608D01*
X66232314Y18714500D01*
X66325500Y18807686D01*
X66391392Y18921814D01*
X66425500Y19049108D01*
X66425500Y19180892D01*
X66391392Y19308186D01*
X66377637Y19332011D01*
X66365984Y19352195D01*
X66349511Y19420095D01*
X66372364Y19486122D01*
X66417074Y19524678D01*
X66507994Y19571004D01*
X66654501Y19677447D01*
X66782553Y19805499D01*
X66888996Y19952006D01*
X66971211Y20113361D01*
X67027171Y20285591D01*
X67051747Y20440756D01*
X67055500Y20464449D01*
X67055500Y20645552D01*
X67039019Y20749603D01*
X67027171Y20824409D01*
X66971211Y20996639D01*
X66971211Y20996640D01*
X66918271Y21100539D01*
X66888996Y21157994D01*
X66839615Y21225962D01*
X66782558Y21304495D01*
X66782554Y21304500D01*
X66654499Y21432555D01*
X66654494Y21432559D01*
X66507997Y21538994D01*
X66507996Y21538995D01*
X66507994Y21538996D01*
X66456300Y21565336D01*
X66346639Y21621212D01*
X66346636Y21621213D01*
X66174410Y21677171D01*
X65995551Y21705500D01*
X65995546Y21705500D01*
X64814454Y21705500D01*
X64814449Y21705500D01*
X64635589Y21677171D01*
X64463363Y21621213D01*
X64463360Y21621212D01*
X64302002Y21538994D01*
X64155505Y21432559D01*
X64155500Y21432555D01*
X64027445Y21304500D01*
X64027441Y21304495D01*
X63921006Y21157998D01*
X63838788Y20996640D01*
X63838787Y20996637D01*
X63782829Y20824411D01*
X63754500Y20645552D01*
X47511778Y20645552D01*
X47462667Y20665894D01*
X47462658Y20665897D01*
X47288694Y20700500D01*
X47288691Y20700500D01*
X47111309Y20700500D01*
X47111306Y20700500D01*
X46937341Y20665897D01*
X46937332Y20665894D01*
X46773459Y20598017D01*
X46773446Y20598010D01*
X46625965Y20499465D01*
X46625961Y20499462D01*
X46500538Y20374039D01*
X46500535Y20374035D01*
X46401990Y20226554D01*
X46401983Y20226541D01*
X46334106Y20062668D01*
X46334103Y20062659D01*
X46299500Y19888696D01*
X16248110Y19888696D01*
X16305220Y20000781D01*
X16368477Y20195466D01*
X16400500Y20397648D01*
X16400500Y20602352D01*
X16368477Y20804534D01*
X16352549Y20853554D01*
X16337620Y20899501D01*
X16305220Y20999219D01*
X16305218Y20999222D01*
X16305218Y20999224D01*
X16253595Y21100539D01*
X16212287Y21181610D01*
X16180064Y21225962D01*
X16091971Y21347214D01*
X15947213Y21491972D01*
X15781613Y21612285D01*
X15781612Y21612286D01*
X15781610Y21612287D01*
X15724653Y21641309D01*
X15599223Y21705219D01*
X15404534Y21768478D01*
X15229995Y21796122D01*
X15202352Y21800500D01*
X14997648Y21800500D01*
X14973329Y21796649D01*
X14795465Y21768478D01*
X14600776Y21705219D01*
X14418386Y21612285D01*
X14252786Y21491972D01*
X14108028Y21347214D01*
X13987715Y21181615D01*
X13975682Y21157998D01*
X13894780Y20999219D01*
X13894779Y20999217D01*
X13894778Y20999214D01*
X13876065Y20941625D01*
X13845816Y20892265D01*
X13542137Y20588587D01*
X13519333Y20673694D01*
X13460090Y20776306D01*
X13376306Y20860090D01*
X13273694Y20919333D01*
X13188584Y20942139D01*
X13825922Y21579476D01*
X13825921Y21579477D01*
X13781359Y21611853D01*
X13781350Y21611859D01*
X13599031Y21704756D01*
X13404417Y21767991D01*
X13202317Y21800000D01*
X12997683Y21800000D01*
X12795582Y21767991D01*
X12600968Y21704756D01*
X12418644Y21611857D01*
X12374077Y21579477D01*
X12374077Y21579476D01*
X13011415Y20942139D01*
X12926306Y20919333D01*
X12823694Y20860090D01*
X12739910Y20776306D01*
X12680667Y20673694D01*
X12657861Y20588586D01*
X12354182Y20892265D01*
X12323932Y20941628D01*
X12321212Y20950000D01*
X12305220Y20999219D01*
X12212287Y21181610D01*
X12180064Y21225962D01*
X12091971Y21347214D01*
X11947213Y21491972D01*
X11781613Y21612285D01*
X11781612Y21612286D01*
X11781610Y21612287D01*
X11724653Y21641309D01*
X11599223Y21705219D01*
X11404534Y21768478D01*
X11229995Y21796122D01*
X11202352Y21800500D01*
X10997648Y21800500D01*
X10973329Y21796649D01*
X10795465Y21768478D01*
X10600776Y21705219D01*
X10418386Y21612285D01*
X10252786Y21491972D01*
X10108028Y21347214D01*
X9987715Y21181614D01*
X9894781Y20999224D01*
X9831522Y20804535D01*
X9799500Y20602352D01*
X2000500Y20602352D01*
X2000500Y22688696D01*
X21499500Y22688696D01*
X21499500Y22511305D01*
X21534103Y22337342D01*
X21534106Y22337333D01*
X21601983Y22173460D01*
X21601990Y22173447D01*
X21700535Y22025966D01*
X21700538Y22025962D01*
X21825961Y21900539D01*
X21825965Y21900536D01*
X21973446Y21801991D01*
X21973459Y21801984D01*
X22054354Y21768477D01*
X22137334Y21734106D01*
X22137336Y21734106D01*
X22137341Y21734104D01*
X22311304Y21699501D01*
X22311307Y21699500D01*
X22311309Y21699500D01*
X22488693Y21699500D01*
X22488694Y21699501D01*
X22548058Y21711309D01*
X22662658Y21734104D01*
X22662661Y21734106D01*
X22662666Y21734106D01*
X22826547Y21801987D01*
X22956315Y21888696D01*
X26099500Y21888696D01*
X26099500Y21711305D01*
X26134103Y21537342D01*
X26134106Y21537333D01*
X26201983Y21373460D01*
X26201990Y21373447D01*
X26300535Y21225966D01*
X26300538Y21225962D01*
X26425961Y21100539D01*
X26425965Y21100536D01*
X26573446Y21001991D01*
X26573459Y21001984D01*
X26696363Y20951077D01*
X26737334Y20934106D01*
X26737336Y20934106D01*
X26737341Y20934104D01*
X26911304Y20899501D01*
X26911307Y20899500D01*
X26911309Y20899500D01*
X27088693Y20899500D01*
X27088694Y20899501D01*
X27188398Y20919333D01*
X27262658Y20934104D01*
X27262661Y20934106D01*
X27262666Y20934106D01*
X27419852Y20999214D01*
X27426540Y21001984D01*
X27426540Y21001985D01*
X27426547Y21001987D01*
X27574035Y21100536D01*
X27699464Y21225965D01*
X27798013Y21373453D01*
X27865894Y21537334D01*
X27866225Y21538994D01*
X27898151Y21699501D01*
X27900500Y21711309D01*
X27900500Y21888691D01*
X27900500Y21888694D01*
X27900499Y21888696D01*
X27865896Y22062659D01*
X27865893Y22062668D01*
X27798016Y22226541D01*
X27798009Y22226554D01*
X27699464Y22374035D01*
X27699461Y22374039D01*
X27574038Y22499462D01*
X27574034Y22499465D01*
X27426553Y22598010D01*
X27426540Y22598017D01*
X27262667Y22665894D01*
X27262658Y22665897D01*
X27088694Y22700500D01*
X27088691Y22700500D01*
X26911309Y22700500D01*
X26911306Y22700500D01*
X26737341Y22665897D01*
X26737332Y22665894D01*
X26573459Y22598017D01*
X26573446Y22598010D01*
X26425965Y22499465D01*
X26425961Y22499462D01*
X26300538Y22374039D01*
X26300535Y22374035D01*
X26201990Y22226554D01*
X26201983Y22226541D01*
X26134106Y22062668D01*
X26134103Y22062659D01*
X26099500Y21888696D01*
X22956315Y21888696D01*
X22974035Y21900536D01*
X22974038Y21900539D01*
X23055964Y21982464D01*
X23099461Y22025962D01*
X23099464Y22025965D01*
X23198013Y22173453D01*
X23265894Y22337334D01*
X23273195Y22374035D01*
X23300499Y22511305D01*
X23300500Y22511307D01*
X23300500Y22688694D01*
X23300499Y22688696D01*
X23265896Y22862659D01*
X23265893Y22862668D01*
X23198016Y23026541D01*
X23198009Y23026554D01*
X23099464Y23174035D01*
X23099461Y23174039D01*
X22984804Y23288696D01*
X30099500Y23288696D01*
X30099500Y23111305D01*
X30134103Y22937342D01*
X30134106Y22937333D01*
X30201983Y22773460D01*
X30201990Y22773447D01*
X30300535Y22625966D01*
X30300538Y22625962D01*
X30425961Y22500539D01*
X30425965Y22500536D01*
X30573446Y22401991D01*
X30573459Y22401984D01*
X30696363Y22351077D01*
X30737334Y22334106D01*
X30737336Y22334106D01*
X30737341Y22334104D01*
X30911304Y22299501D01*
X30911307Y22299500D01*
X30911309Y22299500D01*
X31088693Y22299500D01*
X31088694Y22299501D01*
X31146682Y22311036D01*
X31262658Y22334104D01*
X31262661Y22334106D01*
X31262666Y22334106D01*
X31426547Y22401987D01*
X31574035Y22500536D01*
X31699464Y22625965D01*
X31798013Y22773453D01*
X31865894Y22937334D01*
X31882376Y23020201D01*
X31914760Y23082108D01*
X31975475Y23116683D01*
X31979742Y23117612D01*
X32062666Y23134106D01*
X32226547Y23201987D01*
X32356315Y23288696D01*
X45899500Y23288696D01*
X45899500Y23111305D01*
X45934103Y22937342D01*
X45934106Y22937333D01*
X46001983Y22773460D01*
X46001990Y22773447D01*
X46100535Y22625966D01*
X46100538Y22625962D01*
X46225961Y22500539D01*
X46225965Y22500536D01*
X46373446Y22401991D01*
X46373459Y22401984D01*
X46496363Y22351077D01*
X46537334Y22334106D01*
X46537336Y22334106D01*
X46537341Y22334104D01*
X46711304Y22299501D01*
X46711307Y22299500D01*
X46711309Y22299500D01*
X46888693Y22299500D01*
X46888694Y22299501D01*
X46946682Y22311036D01*
X47062658Y22334104D01*
X47062661Y22334106D01*
X47062666Y22334106D01*
X47226547Y22401987D01*
X47374035Y22500536D01*
X47499464Y22625965D01*
X47598013Y22773453D01*
X47665894Y22937334D01*
X47683639Y23026541D01*
X47688964Y23053318D01*
X47700500Y23111309D01*
X47700500Y23288691D01*
X47700500Y23288694D01*
X47700499Y23288696D01*
X47665896Y23462659D01*
X47665893Y23462668D01*
X47598016Y23626541D01*
X47598009Y23626554D01*
X47499464Y23774035D01*
X47499461Y23774039D01*
X47374038Y23899462D01*
X47374034Y23899465D01*
X47226553Y23998010D01*
X47226540Y23998017D01*
X47062667Y24065894D01*
X47062658Y24065897D01*
X46888694Y24100500D01*
X46888691Y24100500D01*
X46711309Y24100500D01*
X46711306Y24100500D01*
X46537341Y24065897D01*
X46537332Y24065894D01*
X46373459Y23998017D01*
X46373446Y23998010D01*
X46225965Y23899465D01*
X46225961Y23899462D01*
X46100538Y23774039D01*
X46100535Y23774035D01*
X46001990Y23626554D01*
X46001983Y23626541D01*
X45934106Y23462668D01*
X45934103Y23462659D01*
X45899500Y23288696D01*
X32356315Y23288696D01*
X32374035Y23300536D01*
X32374038Y23300539D01*
X32455964Y23382464D01*
X32499461Y23425962D01*
X32499464Y23425965D01*
X32598013Y23573453D01*
X32665894Y23737334D01*
X32673195Y23774035D01*
X32700499Y23911305D01*
X32700500Y23911307D01*
X32700500Y24088694D01*
X32700499Y24088696D01*
X32665896Y24262659D01*
X32665893Y24262668D01*
X32598016Y24426541D01*
X32598009Y24426554D01*
X32499464Y24574035D01*
X32499461Y24574039D01*
X32384804Y24688696D01*
X52499500Y24688696D01*
X52499500Y24511305D01*
X52534103Y24337342D01*
X52534106Y24337333D01*
X52601983Y24173460D01*
X52601990Y24173447D01*
X52700535Y24025966D01*
X52700538Y24025962D01*
X52825961Y23900539D01*
X52825965Y23900536D01*
X52973446Y23801991D01*
X52973459Y23801984D01*
X53096363Y23751077D01*
X53137334Y23734106D01*
X53137336Y23734106D01*
X53137341Y23734104D01*
X53311304Y23699501D01*
X53311307Y23699500D01*
X53311309Y23699500D01*
X53488693Y23699500D01*
X53488694Y23699501D01*
X53546682Y23711036D01*
X53662658Y23734104D01*
X53662661Y23734106D01*
X53662666Y23734106D01*
X53826547Y23801987D01*
X53974035Y23900536D01*
X54099464Y24025965D01*
X54198013Y24173453D01*
X54265894Y24337334D01*
X54283639Y24426541D01*
X54288964Y24453318D01*
X54300500Y24511309D01*
X54300500Y24688691D01*
X54300500Y24688694D01*
X54300499Y24688696D01*
X54265896Y24862659D01*
X54265893Y24862668D01*
X54198016Y25026541D01*
X54198009Y25026554D01*
X54099464Y25174035D01*
X54099461Y25174039D01*
X53974038Y25299462D01*
X53974034Y25299465D01*
X53826553Y25398010D01*
X53826540Y25398017D01*
X53662667Y25465894D01*
X53662658Y25465897D01*
X53488694Y25500500D01*
X53488691Y25500500D01*
X53311309Y25500500D01*
X53311306Y25500500D01*
X53137341Y25465897D01*
X53137332Y25465894D01*
X52973459Y25398017D01*
X52973446Y25398010D01*
X52825965Y25299465D01*
X52825961Y25299462D01*
X52700538Y25174039D01*
X52700535Y25174035D01*
X52601990Y25026554D01*
X52601983Y25026541D01*
X52534106Y24862668D01*
X52534103Y24862659D01*
X52499500Y24688696D01*
X32384804Y24688696D01*
X32374038Y24699462D01*
X32374034Y24699465D01*
X32226553Y24798010D01*
X32226540Y24798017D01*
X32062667Y24865894D01*
X32062658Y24865897D01*
X31888694Y24900500D01*
X31888691Y24900500D01*
X31711309Y24900500D01*
X31711306Y24900500D01*
X31537341Y24865897D01*
X31537332Y24865894D01*
X31373459Y24798017D01*
X31373446Y24798010D01*
X31225965Y24699465D01*
X31225961Y24699462D01*
X31100538Y24574039D01*
X31100535Y24574035D01*
X31001990Y24426554D01*
X31001983Y24426541D01*
X30934106Y24262668D01*
X30934104Y24262662D01*
X30917622Y24179802D01*
X30885236Y24117892D01*
X30824520Y24083318D01*
X30820198Y24082378D01*
X30737338Y24065896D01*
X30737332Y24065894D01*
X30573459Y23998017D01*
X30573446Y23998010D01*
X30425965Y23899465D01*
X30425961Y23899462D01*
X30300538Y23774039D01*
X30300535Y23774035D01*
X30201990Y23626554D01*
X30201983Y23626541D01*
X30134106Y23462668D01*
X30134103Y23462659D01*
X30099500Y23288696D01*
X22984804Y23288696D01*
X22974038Y23299462D01*
X22974034Y23299465D01*
X22826553Y23398010D01*
X22826540Y23398017D01*
X22662667Y23465894D01*
X22662658Y23465897D01*
X22488694Y23500500D01*
X22488691Y23500500D01*
X22311309Y23500500D01*
X22311306Y23500500D01*
X22137341Y23465897D01*
X22137332Y23465894D01*
X21973459Y23398017D01*
X21973446Y23398010D01*
X21825965Y23299465D01*
X21825961Y23299462D01*
X21700538Y23174039D01*
X21700535Y23174035D01*
X21601990Y23026554D01*
X21601983Y23026541D01*
X21534106Y22862668D01*
X21534103Y22862659D01*
X21499500Y22688696D01*
X2000500Y22688696D01*
X2000500Y25602352D01*
X9799500Y25602352D01*
X9799500Y25397649D01*
X9831522Y25195466D01*
X9894781Y25000777D01*
X9945876Y24900500D01*
X9963508Y24865894D01*
X9987715Y24818387D01*
X10108028Y24652787D01*
X10252786Y24508029D01*
X10364939Y24426547D01*
X10418390Y24387713D01*
X10517249Y24337342D01*
X10600776Y24294782D01*
X10600778Y24294782D01*
X10600781Y24294780D01*
X10699612Y24262668D01*
X10795465Y24231523D01*
X10896557Y24215512D01*
X10997648Y24199500D01*
X10997649Y24199500D01*
X11202351Y24199500D01*
X11202352Y24199500D01*
X11404534Y24231523D01*
X11599219Y24294780D01*
X11781610Y24387713D01*
X11874590Y24455268D01*
X11947213Y24508029D01*
X11947215Y24508032D01*
X11947219Y24508034D01*
X12012319Y24573134D01*
X12073642Y24606619D01*
X12143334Y24601635D01*
X12187681Y24573134D01*
X12252786Y24508029D01*
X12364939Y24426547D01*
X12418390Y24387713D01*
X12517249Y24337342D01*
X12600776Y24294782D01*
X12600778Y24294782D01*
X12600781Y24294780D01*
X12699612Y24262668D01*
X12795465Y24231523D01*
X12896557Y24215512D01*
X12997648Y24199500D01*
X12997649Y24199500D01*
X13202351Y24199500D01*
X13202352Y24199500D01*
X13404534Y24231523D01*
X13599219Y24294780D01*
X13781610Y24387713D01*
X13874590Y24455268D01*
X13947213Y24508029D01*
X13947215Y24508032D01*
X13947219Y24508034D01*
X14012319Y24573134D01*
X14073642Y24606619D01*
X14143334Y24601635D01*
X14187681Y24573134D01*
X14252786Y24508029D01*
X14364939Y24426547D01*
X14418390Y24387713D01*
X14517249Y24337342D01*
X14600776Y24294782D01*
X14600778Y24294782D01*
X14600781Y24294780D01*
X14699612Y24262668D01*
X14795465Y24231523D01*
X14896557Y24215512D01*
X14997648Y24199500D01*
X14997649Y24199500D01*
X15202351Y24199500D01*
X15202352Y24199500D01*
X15404534Y24231523D01*
X15599219Y24294780D01*
X15781610Y24387713D01*
X15874590Y24455268D01*
X15947213Y24508029D01*
X15947215Y24508032D01*
X15947219Y24508034D01*
X16091966Y24652781D01*
X16091968Y24652785D01*
X16091971Y24652787D01*
X16197485Y24798017D01*
X16212287Y24818390D01*
X16305220Y25000781D01*
X16368477Y25195466D01*
X16400500Y25397648D01*
X16400500Y25602352D01*
X16384949Y25700536D01*
X16368477Y25804535D01*
X16313592Y25973453D01*
X16305220Y25999219D01*
X16305218Y25999222D01*
X16305218Y25999224D01*
X16234847Y26137333D01*
X16212287Y26181610D01*
X16204556Y26192251D01*
X16091971Y26347214D01*
X15947213Y26491972D01*
X15781613Y26612285D01*
X15781612Y26612286D01*
X15781610Y26612287D01*
X15682736Y26662666D01*
X15599223Y26705219D01*
X15404534Y26768478D01*
X15229995Y26796122D01*
X15202352Y26800500D01*
X14997648Y26800500D01*
X14973329Y26796649D01*
X14795465Y26768478D01*
X14600776Y26705219D01*
X14418386Y26612285D01*
X14252786Y26491972D01*
X14252782Y26491968D01*
X14187681Y26426866D01*
X14126358Y26393381D01*
X14056666Y26398365D01*
X14012319Y26426866D01*
X13947213Y26491972D01*
X13781613Y26612285D01*
X13781612Y26612286D01*
X13781610Y26612287D01*
X13682736Y26662666D01*
X13599223Y26705219D01*
X13404534Y26768478D01*
X13229995Y26796122D01*
X13202352Y26800500D01*
X12997648Y26800500D01*
X12973329Y26796649D01*
X12795465Y26768478D01*
X12600776Y26705219D01*
X12418386Y26612285D01*
X12252786Y26491972D01*
X12252782Y26491968D01*
X12187681Y26426866D01*
X12126358Y26393381D01*
X12056666Y26398365D01*
X12012319Y26426866D01*
X11947213Y26491972D01*
X11781613Y26612285D01*
X11781612Y26612286D01*
X11781610Y26612287D01*
X11682736Y26662666D01*
X11599223Y26705219D01*
X11404534Y26768478D01*
X11229995Y26796122D01*
X11202352Y26800500D01*
X10997648Y26800500D01*
X10973329Y26796649D01*
X10795465Y26768478D01*
X10600776Y26705219D01*
X10418386Y26612285D01*
X10252786Y26491972D01*
X10108028Y26347214D01*
X9987715Y26181614D01*
X9894781Y25999224D01*
X9831522Y25804535D01*
X9799500Y25602352D01*
X2000500Y25602352D01*
X2000500Y27488696D01*
X30699500Y27488696D01*
X30699500Y27311305D01*
X30734103Y27137342D01*
X30734106Y27137333D01*
X30801983Y26973460D01*
X30801990Y26973447D01*
X30900535Y26825966D01*
X30900538Y26825962D01*
X31025961Y26700539D01*
X31025965Y26700536D01*
X31173446Y26601991D01*
X31173459Y26601984D01*
X31296363Y26551077D01*
X31337334Y26534106D01*
X31337336Y26534106D01*
X31337341Y26534104D01*
X31511304Y26499501D01*
X31511307Y26499500D01*
X31511309Y26499500D01*
X31688693Y26499500D01*
X31688694Y26499501D01*
X31746682Y26511036D01*
X31862658Y26534104D01*
X31862661Y26534106D01*
X31862666Y26534106D01*
X32026547Y26601987D01*
X32174035Y26700536D01*
X32299464Y26825965D01*
X32398013Y26973453D01*
X32465894Y27137334D01*
X32500500Y27311309D01*
X32500500Y27488691D01*
X32500500Y27488694D01*
X32500499Y27488696D01*
X32465896Y27662659D01*
X32465893Y27662668D01*
X32398016Y27826541D01*
X32398014Y27826544D01*
X32398013Y27826547D01*
X32356486Y27888696D01*
X37299500Y27888696D01*
X37299500Y27711305D01*
X37334103Y27537342D01*
X37334106Y27537333D01*
X37401983Y27373460D01*
X37401990Y27373447D01*
X37500535Y27225966D01*
X37500538Y27225962D01*
X37625961Y27100539D01*
X37625965Y27100536D01*
X37773446Y27001991D01*
X37773459Y27001984D01*
X37842355Y26973447D01*
X37937334Y26934106D01*
X37937336Y26934106D01*
X37937341Y26934104D01*
X38111304Y26899501D01*
X38111307Y26899500D01*
X38111309Y26899500D01*
X38288693Y26899500D01*
X38288694Y26899501D01*
X38346682Y26911036D01*
X38462658Y26934104D01*
X38462661Y26934106D01*
X38462666Y26934106D01*
X38626547Y27001987D01*
X38774035Y27100536D01*
X38899464Y27225965D01*
X38998013Y27373453D01*
X39065894Y27537334D01*
X39078755Y27601987D01*
X39100499Y27711305D01*
X39100500Y27711307D01*
X39100500Y27888694D01*
X39100499Y27888696D01*
X39065896Y28062659D01*
X39065893Y28062668D01*
X39065430Y28063785D01*
X39011851Y28193139D01*
X38998016Y28226541D01*
X38998009Y28226554D01*
X38899464Y28374035D01*
X38899461Y28374039D01*
X38784804Y28488696D01*
X46899500Y28488696D01*
X46899500Y28311305D01*
X46934103Y28137342D01*
X46934106Y28137333D01*
X47001983Y27973460D01*
X47001990Y27973447D01*
X47100535Y27825966D01*
X47100538Y27825962D01*
X47225961Y27700539D01*
X47225965Y27700536D01*
X47373446Y27601991D01*
X47373459Y27601984D01*
X47493322Y27552336D01*
X47537334Y27534106D01*
X47537336Y27534106D01*
X47537341Y27534104D01*
X47711304Y27499501D01*
X47711307Y27499500D01*
X47711309Y27499500D01*
X47888693Y27499500D01*
X47888694Y27499501D01*
X47946682Y27511036D01*
X48062658Y27534104D01*
X48062661Y27534106D01*
X48062666Y27534106D01*
X48226547Y27601987D01*
X48374035Y27700536D01*
X48499464Y27825965D01*
X48598013Y27973453D01*
X48665894Y28137334D01*
X48676995Y28193139D01*
X48700499Y28311305D01*
X48700500Y28311307D01*
X48700500Y28488694D01*
X48700499Y28488696D01*
X48665896Y28662659D01*
X48665894Y28662664D01*
X48665894Y28662666D01*
X48616904Y28780938D01*
X48609436Y28850405D01*
X48640711Y28912884D01*
X48684008Y28942947D01*
X48826547Y29001987D01*
X48974035Y29100536D01*
X49099464Y29225965D01*
X49141380Y29288696D01*
X51699500Y29288696D01*
X51699500Y29111305D01*
X51734103Y28937342D01*
X51734106Y28937333D01*
X51801983Y28773460D01*
X51801990Y28773447D01*
X51900535Y28625966D01*
X51900538Y28625962D01*
X52025961Y28500539D01*
X52025965Y28500536D01*
X52173446Y28401991D01*
X52173459Y28401984D01*
X52296363Y28351077D01*
X52337334Y28334106D01*
X52337336Y28334106D01*
X52337341Y28334104D01*
X52508980Y28299963D01*
X52570891Y28267578D01*
X52605465Y28206863D01*
X52601726Y28137093D01*
X52560859Y28080421D01*
X52532241Y28063785D01*
X52373459Y27998017D01*
X52373446Y27998010D01*
X52225965Y27899465D01*
X52225961Y27899462D01*
X52100538Y27774039D01*
X52100535Y27774035D01*
X52001990Y27626554D01*
X52001983Y27626541D01*
X51934106Y27462668D01*
X51934103Y27462659D01*
X51899500Y27288696D01*
X51899500Y27111305D01*
X51934103Y26937342D01*
X51934106Y26937333D01*
X52001983Y26773460D01*
X52001990Y26773447D01*
X52100535Y26625966D01*
X52100538Y26625962D01*
X52225961Y26500539D01*
X52225965Y26500536D01*
X52373446Y26401991D01*
X52373459Y26401984D01*
X52496363Y26351077D01*
X52537334Y26334106D01*
X52537336Y26334106D01*
X52537341Y26334104D01*
X52711304Y26299501D01*
X52711307Y26299500D01*
X52711309Y26299500D01*
X52888693Y26299500D01*
X52888694Y26299501D01*
X52948058Y26311309D01*
X53062658Y26334104D01*
X53062661Y26334106D01*
X53062666Y26334106D01*
X53226547Y26401987D01*
X53356315Y26488696D01*
X55099500Y26488696D01*
X55099500Y26311305D01*
X55134103Y26137342D01*
X55134106Y26137333D01*
X55201983Y25973460D01*
X55201990Y25973447D01*
X55300535Y25825966D01*
X55300538Y25825962D01*
X55425961Y25700539D01*
X55425965Y25700536D01*
X55573446Y25601991D01*
X55573459Y25601984D01*
X55696363Y25551077D01*
X55737334Y25534106D01*
X55737336Y25534106D01*
X55737341Y25534104D01*
X55911304Y25499501D01*
X55911307Y25499500D01*
X55911309Y25499500D01*
X56088693Y25499500D01*
X56088694Y25499501D01*
X56146682Y25511036D01*
X56262658Y25534104D01*
X56262661Y25534106D01*
X56262666Y25534106D01*
X56426547Y25601987D01*
X56574035Y25700536D01*
X56699464Y25825965D01*
X56798013Y25973453D01*
X56810939Y26004662D01*
X56854777Y26059063D01*
X56921070Y26081130D01*
X56988770Y26063853D01*
X57036382Y26012717D01*
X57049500Y25957209D01*
X57049500Y25562130D01*
X57049501Y25562124D01*
X57055908Y25502517D01*
X57106202Y25367672D01*
X57106206Y25367665D01*
X57192452Y25252456D01*
X57192455Y25252453D01*
X57307664Y25166207D01*
X57307671Y25166203D01*
X57442517Y25115909D01*
X57442516Y25115909D01*
X57449444Y25115165D01*
X57502127Y25109500D01*
X59297872Y25109501D01*
X59357483Y25115909D01*
X59492331Y25166204D01*
X59607546Y25252454D01*
X59693796Y25367669D01*
X59744091Y25502517D01*
X59750500Y25562127D01*
X59750499Y27357872D01*
X59744091Y27417483D01*
X59727241Y27462659D01*
X59693797Y27552329D01*
X59693793Y27552336D01*
X59607547Y27667545D01*
X59607544Y27667548D01*
X59492335Y27753794D01*
X59492328Y27753798D01*
X59360917Y27802811D01*
X59304983Y27844682D01*
X59280566Y27910147D01*
X59295418Y27978420D01*
X59316563Y28006668D01*
X59430104Y28120208D01*
X59442553Y28137342D01*
X59535950Y28265894D01*
X59555051Y28292184D01*
X59651557Y28481588D01*
X59717246Y28683757D01*
X59750500Y28893713D01*
X59750500Y29106287D01*
X59717246Y29316243D01*
X59651557Y29518412D01*
X59555051Y29707816D01*
X59555049Y29707819D01*
X59555048Y29707821D01*
X59430109Y29879787D01*
X59279786Y30030110D01*
X59107820Y30155049D01*
X59104411Y30156786D01*
X59099054Y30159515D01*
X59048259Y30207488D01*
X59031463Y30275308D01*
X59053999Y30341444D01*
X59099054Y30380485D01*
X59107816Y30384949D01*
X59164270Y30425965D01*
X59279786Y30509891D01*
X59279788Y30509894D01*
X59279792Y30509896D01*
X59430104Y30660208D01*
X59430106Y30660212D01*
X59430109Y30660214D01*
X59555048Y30832180D01*
X59555047Y30832180D01*
X59555051Y30832184D01*
X59651557Y31021588D01*
X59682885Y31118005D01*
X65199500Y31118005D01*
X65199500Y30881996D01*
X65199501Y30881980D01*
X65223529Y30699465D01*
X65230307Y30647986D01*
X65270104Y30499462D01*
X65291394Y30420007D01*
X65381714Y30201955D01*
X65381719Y30201944D01*
X65440866Y30099500D01*
X65499727Y29997550D01*
X65499729Y29997547D01*
X65499730Y29997546D01*
X65643406Y29810303D01*
X65643412Y29810296D01*
X65810295Y29643413D01*
X65810302Y29643407D01*
X65901459Y29573460D01*
X65997550Y29499727D01*
X66125308Y29425966D01*
X66201943Y29381720D01*
X66201948Y29381718D01*
X66201951Y29381716D01*
X66420007Y29291394D01*
X66647986Y29230307D01*
X66881989Y29199500D01*
X66881996Y29199500D01*
X67118004Y29199500D01*
X67118011Y29199500D01*
X67352014Y29230307D01*
X67579993Y29291394D01*
X67798049Y29381716D01*
X68002450Y29499727D01*
X68189699Y29643408D01*
X68356592Y29810301D01*
X68500273Y29997550D01*
X68618284Y30201951D01*
X68708606Y30420007D01*
X68769693Y30647986D01*
X68800500Y30881989D01*
X68800500Y31118011D01*
X68769693Y31352014D01*
X68708606Y31579993D01*
X68618284Y31798049D01*
X68618282Y31798052D01*
X68618280Y31798057D01*
X68537868Y31937333D01*
X68500273Y32002450D01*
X68356592Y32189699D01*
X68356587Y32189705D01*
X68189704Y32356588D01*
X68189697Y32356594D01*
X68002454Y32500270D01*
X68002453Y32500271D01*
X68002450Y32500273D01*
X67920957Y32547323D01*
X67798056Y32618281D01*
X67798045Y32618286D01*
X67579993Y32708606D01*
X67352010Y32769694D01*
X67118020Y32800499D01*
X67118017Y32800500D01*
X67118011Y32800500D01*
X66881989Y32800500D01*
X66881983Y32800500D01*
X66881979Y32800499D01*
X66647989Y32769694D01*
X66420006Y32708606D01*
X66201954Y32618286D01*
X66201943Y32618281D01*
X65997545Y32500270D01*
X65810302Y32356594D01*
X65810295Y32356588D01*
X65643412Y32189705D01*
X65643406Y32189698D01*
X65499730Y32002455D01*
X65381719Y31798057D01*
X65381714Y31798046D01*
X65291394Y31579994D01*
X65230306Y31352011D01*
X65199501Y31118021D01*
X65199500Y31118005D01*
X59682885Y31118005D01*
X59717246Y31223757D01*
X59750500Y31433713D01*
X59750500Y31646287D01*
X59717246Y31856243D01*
X59651557Y32058412D01*
X59555051Y32247816D01*
X59555049Y32247819D01*
X59555048Y32247821D01*
X59430109Y32419787D01*
X59279786Y32570110D01*
X59107820Y32695049D01*
X58918414Y32791556D01*
X58918413Y32791557D01*
X58918412Y32791557D01*
X58716243Y32857246D01*
X58716241Y32857247D01*
X58716240Y32857247D01*
X58554957Y32882792D01*
X58506287Y32890500D01*
X58293713Y32890500D01*
X58245042Y32882792D01*
X58083760Y32857247D01*
X57881585Y32791556D01*
X57692179Y32695049D01*
X57520213Y32570110D01*
X57369890Y32419787D01*
X57244951Y32247821D01*
X57148444Y32058415D01*
X57082753Y31856240D01*
X57049500Y31646287D01*
X57049500Y31433714D01*
X57082753Y31223761D01*
X57082753Y31223759D01*
X57082754Y31223757D01*
X57126638Y31088696D01*
X57148444Y31021586D01*
X57244951Y30832180D01*
X57369890Y30660214D01*
X57520213Y30509891D01*
X57692182Y30384950D01*
X57700946Y30380484D01*
X57751742Y30332509D01*
X57768536Y30264688D01*
X57745998Y30198553D01*
X57700946Y30159516D01*
X57692182Y30155051D01*
X57520213Y30030110D01*
X57369890Y29879787D01*
X57244951Y29707821D01*
X57148444Y29518415D01*
X57082753Y29316240D01*
X57054419Y29137342D01*
X57049500Y29106287D01*
X57049500Y28893713D01*
X57082754Y28683757D01*
X57146133Y28488696D01*
X57148444Y28481586D01*
X57244951Y28292180D01*
X57369890Y28120214D01*
X57483430Y28006674D01*
X57516915Y27945351D01*
X57511931Y27875659D01*
X57470059Y27819726D01*
X57439083Y27802811D01*
X57307669Y27753797D01*
X57307664Y27753794D01*
X57192455Y27667548D01*
X57192452Y27667545D01*
X57106206Y27552336D01*
X57106202Y27552329D01*
X57055908Y27417483D01*
X57051175Y27373453D01*
X57049501Y27357877D01*
X57049500Y27357865D01*
X57049500Y26842793D01*
X57029815Y26775754D01*
X56977011Y26729999D01*
X56907853Y26720055D01*
X56844297Y26749080D01*
X56810938Y26795342D01*
X56798013Y26826547D01*
X56798009Y26826554D01*
X56699464Y26974035D01*
X56699461Y26974039D01*
X56574038Y27099462D01*
X56574034Y27099465D01*
X56426553Y27198010D01*
X56426540Y27198017D01*
X56262667Y27265894D01*
X56262658Y27265897D01*
X56088694Y27300500D01*
X56088691Y27300500D01*
X55911309Y27300500D01*
X55911306Y27300500D01*
X55737341Y27265897D01*
X55737332Y27265894D01*
X55573459Y27198017D01*
X55573446Y27198010D01*
X55425965Y27099465D01*
X55425961Y27099462D01*
X55300538Y26974039D01*
X55300535Y26974035D01*
X55201990Y26826554D01*
X55201983Y26826541D01*
X55134106Y26662668D01*
X55134103Y26662659D01*
X55099500Y26488696D01*
X53356315Y26488696D01*
X53374035Y26500536D01*
X53407606Y26534107D01*
X53455964Y26582464D01*
X53499461Y26625962D01*
X53499464Y26625965D01*
X53598013Y26773453D01*
X53665894Y26937334D01*
X53673078Y26973447D01*
X53700499Y27111305D01*
X53700500Y27111307D01*
X53700500Y27288694D01*
X53700499Y27288696D01*
X53665896Y27462659D01*
X53665893Y27462668D01*
X53598016Y27626541D01*
X53598009Y27626554D01*
X53499464Y27774035D01*
X53499461Y27774039D01*
X53374038Y27899462D01*
X53374034Y27899465D01*
X53226553Y27998010D01*
X53226540Y27998017D01*
X53062667Y28065894D01*
X53062659Y28065896D01*
X52891018Y28100038D01*
X52829107Y28132423D01*
X52794533Y28193139D01*
X52798273Y28262908D01*
X52839140Y28319580D01*
X52867750Y28336213D01*
X53026547Y28401987D01*
X53174035Y28500536D01*
X53299464Y28625965D01*
X53398013Y28773453D01*
X53465894Y28937334D01*
X53473078Y28973447D01*
X53500499Y29111305D01*
X53500500Y29111307D01*
X53500500Y29288694D01*
X53500499Y29288696D01*
X53465896Y29462659D01*
X53465893Y29462668D01*
X53398016Y29626541D01*
X53398009Y29626554D01*
X53299464Y29774035D01*
X53299461Y29774039D01*
X53174038Y29899462D01*
X53174034Y29899465D01*
X53026553Y29998010D01*
X53026540Y29998017D01*
X52862667Y30065894D01*
X52862658Y30065897D01*
X52688694Y30100500D01*
X52688691Y30100500D01*
X52511309Y30100500D01*
X52511306Y30100500D01*
X52337341Y30065897D01*
X52337332Y30065894D01*
X52173459Y29998017D01*
X52173446Y29998010D01*
X52025965Y29899465D01*
X52025961Y29899462D01*
X51900538Y29774039D01*
X51900535Y29774035D01*
X51801990Y29626554D01*
X51801983Y29626541D01*
X51734106Y29462668D01*
X51734103Y29462659D01*
X51699500Y29288696D01*
X49141380Y29288696D01*
X49198013Y29373453D01*
X49265894Y29537334D01*
X49271134Y29563674D01*
X49300499Y29711305D01*
X49300500Y29711307D01*
X49300500Y29888694D01*
X49300499Y29888696D01*
X49265896Y30062659D01*
X49265893Y30062668D01*
X49198016Y30226541D01*
X49198009Y30226554D01*
X49099464Y30374035D01*
X49099461Y30374039D01*
X48974038Y30499462D01*
X48974034Y30499465D01*
X48826553Y30598010D01*
X48826540Y30598017D01*
X48662667Y30665894D01*
X48662658Y30665897D01*
X48488694Y30700500D01*
X48488691Y30700500D01*
X48311309Y30700500D01*
X48311306Y30700500D01*
X48137341Y30665897D01*
X48137332Y30665894D01*
X47973459Y30598017D01*
X47973446Y30598010D01*
X47825965Y30499465D01*
X47825961Y30499462D01*
X47700538Y30374039D01*
X47700535Y30374035D01*
X47601990Y30226554D01*
X47601983Y30226541D01*
X47534106Y30062668D01*
X47534103Y30062659D01*
X47499500Y29888696D01*
X47499500Y29711305D01*
X47534103Y29537342D01*
X47534106Y29537333D01*
X47583094Y29419065D01*
X47590563Y29349596D01*
X47559287Y29287117D01*
X47515986Y29257052D01*
X47373455Y29198015D01*
X47373446Y29198010D01*
X47225965Y29099465D01*
X47225961Y29099462D01*
X47100538Y28974039D01*
X47100535Y28974035D01*
X47001990Y28826554D01*
X47001983Y28826541D01*
X46934106Y28662668D01*
X46934103Y28662659D01*
X46899500Y28488696D01*
X38784804Y28488696D01*
X38774038Y28499462D01*
X38774034Y28499465D01*
X38626553Y28598010D01*
X38626540Y28598017D01*
X38462667Y28665894D01*
X38462658Y28665897D01*
X38288694Y28700500D01*
X38288691Y28700500D01*
X38111309Y28700500D01*
X38111306Y28700500D01*
X37937341Y28665897D01*
X37937332Y28665894D01*
X37773459Y28598017D01*
X37773446Y28598010D01*
X37625965Y28499465D01*
X37625961Y28499462D01*
X37500538Y28374039D01*
X37500535Y28374035D01*
X37401990Y28226554D01*
X37401983Y28226541D01*
X37334106Y28062668D01*
X37334103Y28062659D01*
X37299500Y27888696D01*
X32356486Y27888696D01*
X32299464Y27974035D01*
X32299461Y27974039D01*
X32174038Y28099462D01*
X32174034Y28099465D01*
X32026553Y28198010D01*
X32026540Y28198017D01*
X31862667Y28265894D01*
X31862658Y28265897D01*
X31688694Y28300500D01*
X31688691Y28300500D01*
X31511309Y28300500D01*
X31511306Y28300500D01*
X31337341Y28265897D01*
X31337332Y28265894D01*
X31173459Y28198017D01*
X31173446Y28198010D01*
X31025965Y28099465D01*
X31025961Y28099462D01*
X30900538Y27974039D01*
X30900535Y27974035D01*
X30801990Y27826554D01*
X30801983Y27826541D01*
X30734106Y27662668D01*
X30734103Y27662659D01*
X30699500Y27488696D01*
X2000500Y27488696D01*
X2000500Y30997129D01*
X2000632Y31002855D01*
X2004600Y31088691D01*
X2005955Y31118005D01*
X4199500Y31118005D01*
X4199500Y30881996D01*
X4199501Y30881980D01*
X4223529Y30699465D01*
X4230307Y30647986D01*
X4270104Y30499462D01*
X4291394Y30420007D01*
X4381714Y30201955D01*
X4381719Y30201944D01*
X4440866Y30099500D01*
X4499727Y29997550D01*
X4499729Y29997547D01*
X4499730Y29997546D01*
X4643406Y29810303D01*
X4643412Y29810296D01*
X4810295Y29643413D01*
X4810302Y29643407D01*
X4901459Y29573460D01*
X4997550Y29499727D01*
X5125308Y29425966D01*
X5201943Y29381720D01*
X5201948Y29381718D01*
X5201951Y29381716D01*
X5420007Y29291394D01*
X5647986Y29230307D01*
X5881989Y29199500D01*
X5881996Y29199500D01*
X6118004Y29199500D01*
X6118011Y29199500D01*
X6352014Y29230307D01*
X6579993Y29291394D01*
X6798049Y29381716D01*
X7002450Y29499727D01*
X7189699Y29643408D01*
X7356592Y29810301D01*
X7500273Y29997550D01*
X7552896Y30088696D01*
X19299500Y30088696D01*
X19299500Y29911305D01*
X19334103Y29737342D01*
X19334106Y29737333D01*
X19401983Y29573460D01*
X19401990Y29573447D01*
X19500535Y29425966D01*
X19500538Y29425962D01*
X19625961Y29300539D01*
X19625965Y29300536D01*
X19773446Y29201991D01*
X19773459Y29201984D01*
X19896363Y29151077D01*
X19937334Y29134106D01*
X19937336Y29134106D01*
X19937341Y29134104D01*
X20111304Y29099501D01*
X20111307Y29099500D01*
X20111309Y29099500D01*
X20288693Y29099500D01*
X20288694Y29099501D01*
X20348058Y29111309D01*
X20462658Y29134104D01*
X20462661Y29134106D01*
X20462666Y29134106D01*
X20626547Y29201987D01*
X20774035Y29300536D01*
X20899464Y29425965D01*
X20998013Y29573453D01*
X21065894Y29737334D01*
X21073195Y29774035D01*
X21096001Y29888691D01*
X21100500Y29911309D01*
X21100500Y30088691D01*
X21100500Y30088694D01*
X21100499Y30088696D01*
X26299500Y30088696D01*
X26299500Y29911305D01*
X26334103Y29737342D01*
X26334106Y29737333D01*
X26401983Y29573460D01*
X26401990Y29573447D01*
X26500535Y29425966D01*
X26500538Y29425962D01*
X26625961Y29300539D01*
X26625965Y29300536D01*
X26773446Y29201991D01*
X26773459Y29201984D01*
X26896363Y29151077D01*
X26937334Y29134106D01*
X26937336Y29134106D01*
X26937341Y29134104D01*
X27111304Y29099501D01*
X27111307Y29099500D01*
X27111309Y29099500D01*
X27288693Y29099500D01*
X27288694Y29099501D01*
X27348058Y29111309D01*
X27462658Y29134104D01*
X27462661Y29134106D01*
X27462666Y29134106D01*
X27626547Y29201987D01*
X27774035Y29300536D01*
X27899464Y29425965D01*
X27941380Y29488696D01*
X42099500Y29488696D01*
X42099500Y29311305D01*
X42134103Y29137342D01*
X42134106Y29137333D01*
X42201983Y28973460D01*
X42201990Y28973447D01*
X42300535Y28825966D01*
X42300538Y28825962D01*
X42425961Y28700539D01*
X42425965Y28700536D01*
X42573446Y28601991D01*
X42573459Y28601984D01*
X42696363Y28551077D01*
X42737334Y28534106D01*
X42737336Y28534106D01*
X42737341Y28534104D01*
X42911304Y28499501D01*
X42911307Y28499500D01*
X42911309Y28499500D01*
X43088693Y28499500D01*
X43088694Y28499501D01*
X43146682Y28511036D01*
X43262658Y28534104D01*
X43262661Y28534106D01*
X43262666Y28534106D01*
X43426547Y28601987D01*
X43574035Y28700536D01*
X43699464Y28825965D01*
X43798013Y28973453D01*
X43865894Y29137334D01*
X43878755Y29201987D01*
X43896001Y29288691D01*
X43900500Y29311309D01*
X43900500Y29488691D01*
X43900500Y29488694D01*
X43900499Y29488696D01*
X43865896Y29662659D01*
X43865893Y29662668D01*
X43798016Y29826541D01*
X43798009Y29826554D01*
X43699464Y29974035D01*
X43699461Y29974039D01*
X43574038Y30099462D01*
X43574034Y30099465D01*
X43507526Y30143905D01*
X43462721Y30197518D01*
X43454014Y30266843D01*
X43484169Y30329870D01*
X43528962Y30361567D01*
X43626547Y30401987D01*
X43774035Y30500536D01*
X43899464Y30625965D01*
X43998013Y30773453D01*
X44065894Y30937334D01*
X44100500Y31111309D01*
X44100500Y31288691D01*
X44100500Y31288694D01*
X44100499Y31288696D01*
X44083390Y31374708D01*
X44065894Y31462666D01*
X44059603Y31477854D01*
X44052136Y31547324D01*
X44083412Y31609802D01*
X44086436Y31612938D01*
X44099464Y31625965D01*
X44198013Y31773453D01*
X44265894Y31937334D01*
X44278847Y32002450D01*
X44300499Y32111305D01*
X44300500Y32111307D01*
X44300500Y32288694D01*
X44300499Y32288696D01*
X44265896Y32462659D01*
X44265893Y32462668D01*
X44198016Y32626541D01*
X44198009Y32626554D01*
X44099464Y32774035D01*
X44099461Y32774039D01*
X43974038Y32899462D01*
X43974034Y32899465D01*
X43826553Y32998010D01*
X43826540Y32998017D01*
X43662667Y33065894D01*
X43662658Y33065897D01*
X43488694Y33100500D01*
X43488691Y33100500D01*
X43311309Y33100500D01*
X43311306Y33100500D01*
X43137341Y33065897D01*
X43137332Y33065894D01*
X42973459Y32998017D01*
X42973446Y32998010D01*
X42825965Y32899465D01*
X42825961Y32899462D01*
X42700538Y32774039D01*
X42700535Y32774035D01*
X42601990Y32626554D01*
X42601983Y32626541D01*
X42534106Y32462668D01*
X42534103Y32462659D01*
X42499500Y32288696D01*
X42499500Y32111305D01*
X42534103Y31937342D01*
X42534105Y31937337D01*
X42534106Y31937334D01*
X42540396Y31922148D01*
X42547865Y31852680D01*
X42516590Y31790201D01*
X42513519Y31787018D01*
X42500533Y31774032D01*
X42401990Y31626554D01*
X42401983Y31626541D01*
X42334106Y31462668D01*
X42334103Y31462659D01*
X42299500Y31288696D01*
X42299500Y31111305D01*
X42334103Y30937342D01*
X42334106Y30937333D01*
X42401983Y30773460D01*
X42401990Y30773447D01*
X42500535Y30625966D01*
X42500538Y30625962D01*
X42625961Y30500539D01*
X42625965Y30500536D01*
X42692473Y30456096D01*
X42737278Y30402483D01*
X42745985Y30333158D01*
X42715830Y30270131D01*
X42671035Y30238433D01*
X42573455Y30198015D01*
X42573446Y30198010D01*
X42425965Y30099465D01*
X42425961Y30099462D01*
X42300538Y29974039D01*
X42300535Y29974035D01*
X42201990Y29826554D01*
X42201983Y29826541D01*
X42134106Y29662668D01*
X42134103Y29662659D01*
X42099500Y29488696D01*
X27941380Y29488696D01*
X27998013Y29573453D01*
X28065894Y29737334D01*
X28073195Y29774035D01*
X28096001Y29888691D01*
X28100500Y29911309D01*
X28100500Y30088691D01*
X28100500Y30088694D01*
X28100499Y30088696D01*
X28065896Y30262659D01*
X28065893Y30262668D01*
X28060657Y30275308D01*
X28048923Y30303637D01*
X27998016Y30426541D01*
X27998009Y30426554D01*
X27899464Y30574035D01*
X27899461Y30574039D01*
X27774038Y30699462D01*
X27774034Y30699465D01*
X27626553Y30798010D01*
X27626540Y30798017D01*
X27462667Y30865894D01*
X27462658Y30865897D01*
X27288694Y30900500D01*
X27288691Y30900500D01*
X27111309Y30900500D01*
X27111306Y30900500D01*
X26937341Y30865897D01*
X26937332Y30865894D01*
X26773459Y30798017D01*
X26773446Y30798010D01*
X26625965Y30699465D01*
X26625961Y30699462D01*
X26500538Y30574039D01*
X26500535Y30574035D01*
X26401990Y30426554D01*
X26401983Y30426541D01*
X26334106Y30262668D01*
X26334103Y30262659D01*
X26299500Y30088696D01*
X21100499Y30088696D01*
X21065896Y30262659D01*
X21065893Y30262668D01*
X21060657Y30275308D01*
X21048923Y30303637D01*
X20998016Y30426541D01*
X20998009Y30426554D01*
X20899464Y30574035D01*
X20899461Y30574039D01*
X20774038Y30699462D01*
X20774034Y30699465D01*
X20626553Y30798010D01*
X20626540Y30798017D01*
X20462667Y30865894D01*
X20462658Y30865897D01*
X20288694Y30900500D01*
X20288691Y30900500D01*
X20111309Y30900500D01*
X20111306Y30900500D01*
X19937341Y30865897D01*
X19937332Y30865894D01*
X19773459Y30798017D01*
X19773446Y30798010D01*
X19625965Y30699465D01*
X19625961Y30699462D01*
X19500538Y30574039D01*
X19500535Y30574035D01*
X19401990Y30426554D01*
X19401983Y30426541D01*
X19334106Y30262668D01*
X19334103Y30262659D01*
X19299500Y30088696D01*
X7552896Y30088696D01*
X7618284Y30201951D01*
X7708606Y30420007D01*
X7769693Y30647986D01*
X7800500Y30881989D01*
X7800500Y31118011D01*
X7769693Y31352014D01*
X7708606Y31579993D01*
X7618284Y31798049D01*
X7618282Y31798052D01*
X7618280Y31798057D01*
X7537868Y31937333D01*
X7500273Y32002450D01*
X7356592Y32189699D01*
X7356587Y32189705D01*
X7257596Y32288696D01*
X32299500Y32288696D01*
X32299500Y32111305D01*
X32334103Y31937342D01*
X32334106Y31937333D01*
X32401983Y31773460D01*
X32401990Y31773447D01*
X32471853Y31668891D01*
X32492731Y31602214D01*
X32474247Y31534834D01*
X32471853Y31531109D01*
X32401990Y31426554D01*
X32401983Y31426541D01*
X32334106Y31262668D01*
X32334103Y31262659D01*
X32299500Y31088696D01*
X32299500Y30911305D01*
X32334103Y30737342D01*
X32334106Y30737333D01*
X32401983Y30573460D01*
X32401990Y30573447D01*
X32500535Y30425966D01*
X32500538Y30425962D01*
X32625961Y30300539D01*
X32625965Y30300536D01*
X32773446Y30201991D01*
X32773459Y30201984D01*
X32896363Y30151077D01*
X32937334Y30134106D01*
X32937336Y30134106D01*
X32937341Y30134104D01*
X33111304Y30099501D01*
X33111307Y30099500D01*
X33111309Y30099500D01*
X33288693Y30099500D01*
X33288694Y30099501D01*
X33346682Y30111036D01*
X33462658Y30134104D01*
X33462661Y30134106D01*
X33462666Y30134106D01*
X33626547Y30201987D01*
X33774035Y30300536D01*
X33899464Y30425965D01*
X33998013Y30573453D01*
X34065894Y30737334D01*
X34073078Y30773447D01*
X34100499Y30911305D01*
X34100500Y30911307D01*
X34100500Y31088694D01*
X34100499Y31088696D01*
X34065896Y31262659D01*
X34065893Y31262668D01*
X33998016Y31426541D01*
X33998012Y31426548D01*
X33998008Y31426554D01*
X33928145Y31531112D01*
X33907268Y31597785D01*
X33925752Y31665166D01*
X33928118Y31668850D01*
X33998013Y31773453D01*
X34065894Y31937334D01*
X34078847Y32002450D01*
X34100499Y32111305D01*
X34100500Y32111307D01*
X34100500Y32288694D01*
X34100499Y32288696D01*
X34065896Y32462659D01*
X34065893Y32462668D01*
X33998016Y32626541D01*
X33998009Y32626554D01*
X33899464Y32774035D01*
X33899461Y32774039D01*
X33774038Y32899462D01*
X33774034Y32899465D01*
X33626553Y32998010D01*
X33626540Y32998017D01*
X33462667Y33065894D01*
X33462658Y33065897D01*
X33288694Y33100500D01*
X33288691Y33100500D01*
X33111309Y33100500D01*
X33111306Y33100500D01*
X32937341Y33065897D01*
X32937332Y33065894D01*
X32773459Y32998017D01*
X32773446Y32998010D01*
X32625965Y32899465D01*
X32625961Y32899462D01*
X32500538Y32774039D01*
X32500535Y32774035D01*
X32401990Y32626554D01*
X32401983Y32626541D01*
X32334106Y32462668D01*
X32334103Y32462659D01*
X32299500Y32288696D01*
X7257596Y32288696D01*
X7189704Y32356588D01*
X7189697Y32356594D01*
X7002454Y32500270D01*
X7002453Y32500271D01*
X7002450Y32500273D01*
X6920957Y32547323D01*
X6798056Y32618281D01*
X6798045Y32618286D01*
X6579993Y32708606D01*
X6352010Y32769694D01*
X6118020Y32800499D01*
X6118017Y32800500D01*
X6118011Y32800500D01*
X5881989Y32800500D01*
X5881983Y32800500D01*
X5881979Y32800499D01*
X5647989Y32769694D01*
X5420006Y32708606D01*
X5201954Y32618286D01*
X5201943Y32618281D01*
X4997545Y32500270D01*
X4810302Y32356594D01*
X4810295Y32356588D01*
X4643412Y32189705D01*
X4643406Y32189698D01*
X4499730Y32002455D01*
X4381719Y31798057D01*
X4381714Y31798046D01*
X4291394Y31579994D01*
X4230306Y31352011D01*
X4199501Y31118021D01*
X4199500Y31118005D01*
X2005955Y31118005D01*
X2017296Y31363313D01*
X2018353Y31374708D01*
X2067809Y31729243D01*
X2069909Y31740480D01*
X2151869Y32088951D01*
X2154992Y32099930D01*
X2268763Y32439377D01*
X2272886Y32450016D01*
X2417482Y32777497D01*
X2422574Y32787723D01*
X2596768Y33100459D01*
X2602794Y33110191D01*
X2805103Y33405528D01*
X2811985Y33414640D01*
X3040682Y33690049D01*
X3048376Y33698489D01*
X3301511Y33951624D01*
X3309951Y33959318D01*
X3585360Y34188015D01*
X3594472Y34194897D01*
X3889814Y34397210D01*
X3899541Y34403232D01*
X4212277Y34577426D01*
X4222503Y34582518D01*
X4549984Y34727114D01*
X4560623Y34731237D01*
X4900070Y34845008D01*
X4911049Y34848131D01*
X5259520Y34930091D01*
X5270757Y34932191D01*
X5625301Y34981648D01*
X5636687Y34982704D01*
X5997145Y34999368D01*
X6002872Y34999500D01*
X6065892Y34999500D01*
X66934108Y34999500D01*
X66997128Y34999500D01*
X67002855Y34999368D01*
G37*
%TD.AperFunction*%
%TD*%
M02*
