M48
; DRILL file {KiCad 9.0.2} date 2026-05-26T23:11:12-0300
; FORMAT={-:-/ absolute / metric / decimal}
; #@! TF.CreationDate,2026-05-26T23:11:12-03:00
; #@! TF.GenerationSoftware,Kicad,Pcbnew,9.0.2
; #@! TF.FileFunction,Plated,1,4,PTH
FMAT,2
METRIC
; #@! TA.AperFunction,Plated,PTH,ViaDrill
T1C0.250
; #@! TA.AperFunction,Plated,PTH,ComponentDrill
T2C0.300
; #@! TA.AperFunction,Plated,PTH,ComponentDrill
T3C0.500
; #@! TA.AperFunction,Plated,PTH,ComponentDrill
T4C0.900
; #@! TA.AperFunction,Plated,PTH,ComponentDrill
T5C1.000
%
G90
G05
T1
X6.0Y14.2
X6.0Y13.2
X10.8Y18.2
X13.2Y18.8
X14.8Y10.2
X16.8Y18.2
X18.0Y18.2
X18.8Y14.8
X18.8Y13.6
X19.2Y28.0
X20.2Y30.0
X20.2Y29.0
X22.325Y27.8
X22.4Y22.6
X27.0Y21.8
X27.2Y30.0
X31.0Y23.2
X31.6Y32.8
X31.6Y27.4
X31.8Y24.0
X33.0Y27.8
X33.2Y32.2
X33.2Y31.0
X33.4Y11.4
X33.6Y14.2
X34.6Y16.6
X34.8Y13.8
X34.8Y11.2
X35.0Y7.8
X36.8Y10.0
X38.0Y10.0
X38.2Y27.8
X40.8Y16.8
X42.0Y16.6
X42.2Y32.8
X43.0Y29.4
X43.2Y31.2
X43.4Y32.2
X43.4Y27.8
X46.8Y23.2
X47.2Y19.8
X47.4Y11.2
X47.8Y28.4
X47.8Y14.8
X48.0Y16.6
X48.4Y29.8
X48.6Y27.6
X50.0Y9.6
X50.8Y18.2
X51.0Y9.6
X52.0Y9.6
X52.6Y32.8
X52.6Y29.2
X52.8Y27.2
X52.8Y18.6
X53.4Y24.6
X53.6Y14.4
X54.4Y24.6
X54.6Y14.4
X56.0Y26.4
X56.6Y13.8
X59.0Y20.0
X60.8Y17.8
X61.0Y8.4
X62.0Y20.6
X63.4Y12.2
X63.6Y20.6
T2
X68.225Y18.225
X68.225Y14.225
X70.225Y18.225
X70.225Y14.225
T4
X11.1Y25.5
X11.1Y20.5
X13.1Y25.5
X13.1Y20.5
X15.1Y25.5
X15.1Y20.5
T5
X58.4Y31.54
X58.4Y29.0
X58.4Y26.46
T3
G00X64.855Y20.555
M15
G01X65.955Y20.555
M16
G05
G00X64.855Y11.895
M15
G01X65.955Y11.895
M16
G05
G00X69.205Y20.555
M15
G01X70.005Y20.555
M16
G05
G00X69.205Y11.895
M15
G01X70.005Y11.895
M16
G05
M30
