%TF.GenerationSoftware,KiCad,Pcbnew,9.0.2*%
%TF.CreationDate,2026-05-26T23:09:57-03:00*%
%TF.ProjectId,clock_module,636c6f63-6b5f-46d6-9f64-756c652e6b69,rev?*%
%TF.SameCoordinates,PX5b8d800PY58b1140*%
%TF.FileFunction,Soldermask,Top*%
%TF.FilePolarity,Negative*%
%FSLAX46Y46*%
G04 Gerber Fmt 4.6, Leading zero omitted, Abs format (unit mm)*
G04 Created by KiCad (PCBNEW 9.0.2) date 2026-05-26 23:09:57*
%MOMM*%
%LPD*%
G01*
G04 APERTURE LIST*
G04 Aperture macros list*
%AMRoundRect*
0 Rectangle with rounded corners*
0 $1 Rounding radius*
0 $2 $3 $4 $5 $6 $7 $8 $9 X,Y pos of 4 corners*
0 Add a 4 corners polygon primitive as box body*
4,1,4,$2,$3,$4,$5,$6,$7,$8,$9,$2,$3,0*
0 Add four circle primitives for the rounded corners*
1,1,$1+$1,$2,$3*
1,1,$1+$1,$4,$5*
1,1,$1+$1,$6,$7*
1,1,$1+$1,$8,$9*
0 Add four rect primitives between the rounded corners*
20,1,$1+$1,$2,$3,$4,$5,0*
20,1,$1+$1,$4,$5,$6,$7,0*
20,1,$1+$1,$6,$7,$8,$9,0*
20,1,$1+$1,$8,$9,$2,$3,0*%
G04 Aperture macros list end*
%ADD10RoundRect,0.244000X-0.244000X-0.269000X0.244000X-0.269000X0.244000X0.269000X-0.244000X0.269000X0*%
%ADD11RoundRect,0.219000X0.294000X-0.219000X0.294000X0.219000X-0.294000X0.219000X-0.294000X-0.219000X0*%
%ADD12RoundRect,0.150000X-0.512500X-0.150000X0.512500X-0.150000X0.512500X0.150000X-0.512500X0.150000X0*%
%ADD13RoundRect,0.244000X-0.269000X0.244000X-0.269000X-0.244000X0.269000X-0.244000X0.269000X0.244000X0*%
%ADD14RoundRect,0.244000X0.269000X-0.244000X0.269000X0.244000X-0.269000X0.244000X-0.269000X-0.244000X0*%
%ADD15C,3.200000*%
%ADD16C,0.600000*%
%ADD17R,1.400000X0.300000*%
%ADD18R,1.400000X0.500000*%
%ADD19O,2.300000X1.300000*%
%ADD20O,2.100000X1.300000*%
%ADD21C,0.500000*%
%ADD22RoundRect,0.500000X1.000000X-2.000000X1.000000X2.000000X-1.000000X2.000000X-1.000000X-2.000000X0*%
%ADD23RoundRect,0.150000X0.825000X0.150000X-0.825000X0.150000X-0.825000X-0.150000X0.825000X-0.150000X0*%
%ADD24RoundRect,0.244000X0.244000X0.269000X-0.244000X0.269000X-0.244000X-0.269000X0.244000X-0.269000X0*%
%ADD25RoundRect,0.250000X-0.400000X-0.400000X0.400000X-0.400000X0.400000X0.400000X-0.400000X0.400000X0*%
%ADD26RoundRect,0.250000X-0.750000X-0.400000X0.750000X-0.400000X0.750000X0.400000X-0.750000X0.400000X0*%
%ADD27O,2.050000X0.590000*%
%ADD28RoundRect,0.220000X0.220000X0.255000X-0.220000X0.255000X-0.220000X-0.255000X0.220000X-0.255000X0*%
%ADD29RoundRect,0.219000X-0.219000X-0.294000X0.219000X-0.294000X0.219000X0.294000X-0.219000X0.294000X0*%
%ADD30RoundRect,0.239000X-0.239000X-0.274000X0.239000X-0.274000X0.239000X0.274000X-0.239000X0.274000X0*%
%ADD31R,1.700000X1.700000*%
%ADD32C,1.700000*%
%ADD33C,1.600000*%
%ADD34RoundRect,0.287778X0.489222X0.714222X-0.489222X0.714222X-0.489222X-0.714222X0.489222X-0.714222X0*%
G04 APERTURE END LIST*
D10*
%TO.C,C13*%
X9200000Y16750000D03*
X10760000Y16750000D03*
%TD*%
D11*
%TO.C,R3*%
X42675000Y10830000D03*
X42675000Y12470000D03*
%TD*%
D12*
%TO.C,U1*%
X58362500Y14750000D03*
X58362500Y13800000D03*
X58362500Y12850000D03*
X60637500Y12850000D03*
X60637500Y13800000D03*
X60637500Y14750000D03*
%TD*%
D13*
%TO.C,C4*%
X52775000Y12430000D03*
X52775000Y10870000D03*
%TD*%
D14*
%TO.C,C10*%
X43375000Y24740000D03*
X43375000Y26300000D03*
%TD*%
D15*
%TO.C,H1*%
X67000000Y31000000D03*
%TD*%
D14*
%TO.C,C11*%
X32975000Y24850000D03*
X32975000Y26410000D03*
%TD*%
D10*
%TO.C,C2*%
X57495000Y18500000D03*
X59055000Y18500000D03*
%TD*%
D11*
%TO.C,R1*%
X62550000Y17955000D03*
X62550000Y19595000D03*
%TD*%
D16*
%TO.C,J1*%
X65925000Y13335000D03*
X65925000Y19115000D03*
D17*
X64725000Y14975000D03*
X64725000Y15975000D03*
X64725000Y16475000D03*
X64725000Y17475000D03*
D18*
X64725000Y18625000D03*
X64725000Y19425000D03*
D17*
X64725000Y17975000D03*
X64725000Y16975000D03*
X64725000Y15475000D03*
X64725000Y14475000D03*
D18*
X64725000Y13825000D03*
X64725000Y13025000D03*
D19*
X65405000Y11895000D03*
D20*
X69605000Y11895000D03*
D21*
X68225000Y14225000D03*
X70225000Y14225000D03*
D22*
X69225000Y16225000D03*
D21*
X68225000Y18225000D03*
X70225000Y18225000D03*
D19*
X65405000Y20555000D03*
D20*
X69605000Y20555000D03*
%TD*%
D11*
%TO.C,R7*%
X17600000Y27985000D03*
X17600000Y29625000D03*
%TD*%
%TO.C,R4*%
X40950000Y10830000D03*
X40950000Y12470000D03*
%TD*%
%TO.C,R8*%
X16975000Y11035000D03*
X16975000Y12675000D03*
%TD*%
%TO.C,R2*%
X62575000Y14960000D03*
X62575000Y16600000D03*
%TD*%
D14*
%TO.C,C12*%
X7075000Y11890000D03*
X7075000Y13450000D03*
%TD*%
D23*
%TO.C,U7*%
X29525000Y24880000D03*
X29525000Y26150000D03*
X29525000Y27420000D03*
X29525000Y28690000D03*
X29525000Y29960000D03*
X29525000Y31230000D03*
X29525000Y32500000D03*
X24575000Y32500000D03*
X24575000Y31230000D03*
X24575000Y29960000D03*
X24575000Y28690000D03*
X24575000Y27420000D03*
X24575000Y26150000D03*
X24575000Y24880000D03*
%TD*%
D14*
%TO.C,C14*%
X22325000Y24870000D03*
X22325000Y26430000D03*
%TD*%
D10*
%TO.C,C9*%
X31400000Y16465000D03*
X32960000Y16465000D03*
%TD*%
%TO.C,C6*%
X33375000Y9415000D03*
X34935000Y9415000D03*
%TD*%
D24*
%TO.C,C3*%
X55905000Y18525000D03*
X54345000Y18525000D03*
%TD*%
D25*
%TO.C,RV1*%
X24625000Y16300000D03*
D26*
X23475000Y10800000D03*
D25*
X22325000Y16300000D03*
%TD*%
D15*
%TO.C,H2*%
X67000000Y6000000D03*
%TD*%
D13*
%TO.C,C8*%
X39230000Y12420000D03*
X39230000Y10860000D03*
%TD*%
D23*
%TO.C,U5*%
X40175000Y24865000D03*
X40175000Y26135000D03*
X40175000Y27405000D03*
X40175000Y28675000D03*
X40175000Y29945000D03*
X40175000Y31215000D03*
X40175000Y32485000D03*
X35225000Y32485000D03*
X35225000Y31215000D03*
X35225000Y29945000D03*
X35225000Y28675000D03*
X35225000Y27405000D03*
X35225000Y26135000D03*
X35225000Y24865000D03*
%TD*%
D27*
%TO.C,U6*%
X14745000Y11415000D03*
X14745000Y12685000D03*
X14745000Y13965000D03*
X14745000Y15235000D03*
X9205000Y15235000D03*
X9205000Y13965000D03*
X9205000Y12685000D03*
X9205000Y11415000D03*
%TD*%
%TO.C,U3*%
X36925000Y11030000D03*
X36925000Y12300000D03*
X36925000Y13580000D03*
X36925000Y14850000D03*
X31385000Y14850000D03*
X31385000Y13580000D03*
X31385000Y12300000D03*
X31385000Y11030000D03*
%TD*%
D10*
%TO.C,C5*%
X45045000Y16575000D03*
X46605000Y16575000D03*
%TD*%
D28*
%TO.C,FB1*%
X57490000Y16600000D03*
X55910000Y16600000D03*
%TD*%
D10*
%TO.C,C1*%
X59245000Y16600000D03*
X60805000Y16600000D03*
%TD*%
D15*
%TO.C,H3*%
X6000000Y31000000D03*
%TD*%
D29*
%TO.C,R9*%
X13105000Y16750000D03*
X14745000Y16750000D03*
%TD*%
D30*
%TO.C,D1*%
X17610000Y31910000D03*
X19190000Y31910000D03*
%TD*%
D31*
%TO.C,J2*%
X58400000Y26460000D03*
D32*
X58400000Y29000000D03*
X58400000Y31540000D03*
%TD*%
D33*
%TO.C,SW1*%
X15100000Y20500000D03*
X13100000Y20500000D03*
X11100000Y20500000D03*
X15100000Y25500000D03*
X13100000Y25500000D03*
X11100000Y25500000D03*
%TD*%
D10*
%TO.C,C7*%
X47020000Y9450000D03*
X48580000Y9450000D03*
%TD*%
D15*
%TO.C,H4*%
X6000000Y6000000D03*
%TD*%
D23*
%TO.C,U4*%
X50575000Y24742500D03*
X50575000Y26012500D03*
X50575000Y27282500D03*
X50575000Y28552500D03*
X50575000Y29822500D03*
X50575000Y31092500D03*
X50575000Y32362500D03*
X45625000Y32362500D03*
X45625000Y31092500D03*
X45625000Y29822500D03*
X45625000Y28552500D03*
X45625000Y27282500D03*
X45625000Y26012500D03*
X45625000Y24742500D03*
%TD*%
D11*
%TO.C,R6*%
X27605000Y10795000D03*
X27605000Y12435000D03*
%TD*%
%TO.C,R5*%
X29180000Y10800000D03*
X29180000Y12440000D03*
%TD*%
D27*
%TO.C,U2*%
X50570000Y11065000D03*
X50570000Y12335000D03*
X50570000Y13615000D03*
X50570000Y14885000D03*
X45030000Y14885000D03*
X45030000Y13615000D03*
X45030000Y12335000D03*
X45030000Y11065000D03*
%TD*%
D34*
%TO.C,S1*%
X59275000Y8525000D03*
X55125000Y8525000D03*
%TD*%
M02*
