%TF.GenerationSoftware,KiCad,Pcbnew,9.0.2*%
%TF.CreationDate,2026-05-26T23:09:57-03:00*%
%TF.ProjectId,clock_module,636c6f63-6b5f-46d6-9f64-756c652e6b69,rev?*%
%TF.SameCoordinates,PX5b8d800PY58b1140*%
%TF.FileFunction,Copper,L4,Bot*%
%TF.FilePolarity,Positive*%
%FSLAX46Y46*%
G04 Gerber Fmt 4.6, Leading zero omitted, Abs format (unit mm)*
G04 Created by KiCad (PCBNEW 9.0.2) date 2026-05-26 23:09:57*
%MOMM*%
%LPD*%
G01*
G04 APERTURE LIST*
%TA.AperFunction,ComponentPad*%
%ADD10O,2.300000X1.300000*%
%TD*%
%TA.AperFunction,ComponentPad*%
%ADD11O,2.100000X1.300000*%
%TD*%
%TA.AperFunction,ComponentPad*%
%ADD12C,0.500000*%
%TD*%
%TA.AperFunction,ComponentPad*%
%ADD13R,1.700000X1.700000*%
%TD*%
%TA.AperFunction,ComponentPad*%
%ADD14C,1.700000*%
%TD*%
%TA.AperFunction,ComponentPad*%
%ADD15C,1.600000*%
%TD*%
%TA.AperFunction,ViaPad*%
%ADD16C,0.800000*%
%TD*%
%TA.AperFunction,Conductor*%
%ADD17C,0.300000*%
%TD*%
%TA.AperFunction,Conductor*%
%ADD18C,0.200000*%
%TD*%
G04 APERTURE END LIST*
D10*
%TO.P,J1,S1,SHIELD*%
%TO.N,unconnected-(J1-SHIELD-PadS1)_1*%
X65405000Y11895000D03*
D11*
%TO.N,unconnected-(J1-SHIELD-PadS1)_2*%
X69605000Y11895000D03*
D12*
%TO.N,unconnected-(J1-SHIELD-PadS1)*%
X68225000Y14225000D03*
%TO.N,unconnected-(J1-SHIELD-PadS1)_6*%
X70225000Y14225000D03*
%TO.N,unconnected-(J1-SHIELD-PadS1)_7*%
X68225000Y18225000D03*
%TO.N,unconnected-(J1-SHIELD-PadS1)_8*%
X70225000Y18225000D03*
D10*
%TO.N,unconnected-(J1-SHIELD-PadS1)_3*%
X65405000Y20555000D03*
D11*
%TO.N,unconnected-(J1-SHIELD-PadS1)_5*%
X69605000Y20555000D03*
%TD*%
D13*
%TO.P,J2,1,Pin_1*%
%TO.N,/Main Circuit/HLT*%
X58400000Y26460000D03*
D14*
%TO.P,J2,2,Pin_2*%
%TO.N,/Main Circuit/CLK_SIGNAL*%
X58400000Y29000000D03*
%TO.P,J2,3,Pin_3*%
%TO.N,/Main Circuit/!CLK_SIGNAL*%
X58400000Y31540000D03*
%TD*%
D15*
%TO.P,SW1,1,A*%
%TO.N,Net-(SW1-A)*%
X15100000Y20500000D03*
%TO.P,SW1,2,B*%
%TO.N,GND*%
X13100000Y20500000D03*
%TO.P,SW1,3,C*%
%TO.N,Net-(SW1-C)*%
X11100000Y20500000D03*
%TO.P,SW1,4*%
%TO.N,N/C*%
X15100000Y25500000D03*
%TO.P,SW1,5*%
X13100000Y25500000D03*
%TO.P,SW1,6*%
X11100000Y25500000D03*
%TD*%
D16*
%TO.N,GND*%
X54400000Y24600000D03*
X43400000Y27800000D03*
X19200000Y28000000D03*
X60800000Y17800000D03*
X63400000Y12200000D03*
X18800000Y13600000D03*
X18000000Y18200000D03*
X20200000Y29000000D03*
X6000000Y14200000D03*
X34800000Y11200000D03*
X40800000Y16800000D03*
X34600000Y16600000D03*
X33600000Y14200000D03*
X51000000Y9600000D03*
X48000000Y16600000D03*
X42200000Y32800000D03*
X48600000Y27600000D03*
X36800000Y10000000D03*
X52000000Y9600000D03*
X52600000Y32800000D03*
X38000000Y10000000D03*
X35000000Y7800000D03*
X50000000Y9600000D03*
X52800000Y18600000D03*
X56600000Y13800000D03*
X6000000Y13200000D03*
X54600000Y14400000D03*
X22325000Y27800000D03*
X33000000Y27800000D03*
X63600000Y20600000D03*
X59000000Y20000000D03*
X61000000Y8400000D03*
X10800000Y18200000D03*
X13200000Y18800000D03*
X31600000Y32800000D03*
X62000000Y20600000D03*
X14800000Y10200000D03*
%TO.N,+5V*%
X22400000Y22600000D03*
X27000000Y21800000D03*
X47800000Y14800000D03*
X33400000Y11400000D03*
X34800000Y13800000D03*
X47400000Y11200000D03*
%TO.N,/Main Circuit/CLK_SIGNAL*%
X33200000Y32200000D03*
X20200000Y30000000D03*
X43400000Y32200000D03*
X27200000Y30000000D03*
%TO.N,/Main Circuit/HLT*%
X56000000Y26400000D03*
X31600000Y27400000D03*
%TO.N,Net-(SW1-A)*%
X18800000Y14800000D03*
X16800000Y18200000D03*
%TO.N,/Main Circuit/MON_SIGNAL*%
X53600000Y14400000D03*
X53400000Y24600000D03*
%TO.N,/Main Circuit/AST_SIGNAL*%
X47800000Y28400000D03*
X42000000Y16600000D03*
%TO.N,Net-(U4-3B)*%
X38200000Y27800000D03*
X43000000Y29400000D03*
%TO.N,Net-(U4-3A)*%
X33200000Y31000000D03*
X43200000Y31200000D03*
%TO.N,Net-(U4-2Y)*%
X47200000Y19800000D03*
X52600000Y29200000D03*
%TO.N,/Main Circuit/SIG_SELECT*%
X46800000Y23200000D03*
X31000000Y23200000D03*
%TO.N,/Main Circuit/!SIG_SELECT*%
X31800000Y24000000D03*
X48400000Y29800000D03*
%TO.N,Net-(U4-1Y)*%
X50800000Y18200000D03*
X52800000Y27200000D03*
%TD*%
D17*
%TO.N,+5V*%
X27000000Y21800000D02*
X23200000Y21800000D01*
X23200000Y21800000D02*
X22400000Y22600000D01*
X47400000Y11200000D02*
X47800000Y11600000D01*
X34800000Y13800000D02*
X34800000Y12800000D01*
X34800000Y12800000D02*
X33400000Y11400000D01*
X47800000Y11600000D02*
X47800000Y14800000D01*
%TO.N,/Main Circuit/CLK_SIGNAL*%
X33351000Y32049000D02*
X43249000Y32049000D01*
X33200000Y32200000D02*
X33351000Y32049000D01*
X43249000Y32049000D02*
X43400000Y32200000D01*
X20200000Y30000000D02*
X27200000Y30000000D01*
D18*
%TO.N,/Main Circuit/HLT*%
X56000000Y27200000D02*
X56000000Y26400000D01*
X31600000Y27400000D02*
X31600000Y28200000D01*
X48690364Y30501000D02*
X48791364Y30400000D01*
X48791364Y30400000D02*
X52800000Y30400000D01*
X48008636Y30400000D02*
X48109636Y30501000D01*
X52800000Y30400000D02*
X56000000Y27200000D01*
X48109636Y30501000D02*
X48690364Y30501000D01*
X33800000Y30400000D02*
X48008636Y30400000D01*
X31600000Y28200000D02*
X33800000Y30400000D01*
D17*
%TO.N,Net-(SW1-A)*%
X18800000Y16200000D02*
X16800000Y18200000D01*
X18800000Y14800000D02*
X18800000Y16200000D01*
%TO.N,/Main Circuit/MON_SIGNAL*%
X53600000Y14400000D02*
X53600000Y24400000D01*
X53600000Y24400000D02*
X53400000Y24600000D01*
%TO.N,/Main Circuit/AST_SIGNAL*%
X42000000Y16600000D02*
X47800000Y22400000D01*
X47800000Y22400000D02*
X47800000Y28400000D01*
D18*
%TO.N,Net-(U4-3B)*%
X39000000Y29400000D02*
X43000000Y29400000D01*
X38400000Y28800000D02*
X39000000Y29400000D01*
X38200000Y28600000D02*
X38400000Y28800000D01*
X38200000Y27800000D02*
X38200000Y28600000D01*
%TO.N,Net-(U4-3A)*%
X33400000Y31200000D02*
X43200000Y31200000D01*
X33200000Y31000000D02*
X33400000Y31200000D01*
%TO.N,Net-(U4-2Y)*%
X47200000Y19800000D02*
X50800000Y23400000D01*
X50800000Y23400000D02*
X50800000Y28600000D01*
X51400000Y29200000D02*
X52600000Y29200000D01*
X50800000Y28600000D02*
X51400000Y29200000D01*
D17*
%TO.N,/Main Circuit/SIG_SELECT*%
X44800000Y21200000D02*
X33000000Y21200000D01*
X46800000Y23200000D02*
X44800000Y21200000D01*
X33000000Y21200000D02*
X31000000Y23200000D01*
D18*
%TO.N,/Main Circuit/!SIG_SELECT*%
X33400000Y22400000D02*
X44400000Y22400000D01*
X44400000Y22400000D02*
X46800000Y24800000D01*
X31800000Y24000000D02*
X33400000Y22400000D01*
X48200000Y29800000D02*
X48400000Y29800000D01*
X47509636Y29109636D02*
X48200000Y29800000D01*
X46800000Y24800000D02*
X46800000Y28391364D01*
X46800000Y28391364D02*
X47509636Y29101000D01*
X47509636Y29101000D02*
X47509636Y29109636D01*
%TO.N,Net-(U4-1Y)*%
X52600000Y20000000D02*
X52600000Y27000000D01*
X50800000Y18200000D02*
X52600000Y20000000D01*
X52600000Y27000000D02*
X52800000Y27200000D01*
%TD*%
M02*
