%TF.GenerationSoftware,KiCad,Pcbnew,9.0.2*%
%TF.CreationDate,2026-05-26T23:09:57-03:00*%
%TF.ProjectId,clock_module,636c6f63-6b5f-46d6-9f64-756c652e6b69,rev?*%
%TF.SameCoordinates,PX5b8d800PY58b1140*%
%TF.FileFunction,Legend,Top*%
%TF.FilePolarity,Positive*%
%FSLAX46Y46*%
G04 Gerber Fmt 4.6, Leading zero omitted, Abs format (unit mm)*
G04 Created by KiCad (PCBNEW 9.0.2) date 2026-05-26 23:09:57*
%MOMM*%
%LPD*%
G01*
G04 APERTURE LIST*
%ADD10C,0.152400*%
%ADD11C,0.150000*%
%ADD12C,0.120000*%
%ADD13C,0.127000*%
G04 APERTURE END LIST*
D10*
X40926015Y4120197D02*
X40926015Y3539625D01*
X40926015Y3539625D02*
X40887310Y3423511D01*
X40887310Y3423511D02*
X40809901Y3346101D01*
X40809901Y3346101D02*
X40693786Y3307397D01*
X40693786Y3307397D02*
X40616377Y3307397D01*
X41700110Y3307397D02*
X41313062Y3307397D01*
X41313062Y3307397D02*
X41313062Y4120197D01*
X42435500Y3384806D02*
X42396796Y3346101D01*
X42396796Y3346101D02*
X42280681Y3307397D01*
X42280681Y3307397D02*
X42203272Y3307397D01*
X42203272Y3307397D02*
X42087158Y3346101D01*
X42087158Y3346101D02*
X42009748Y3423511D01*
X42009748Y3423511D02*
X41971043Y3500921D01*
X41971043Y3500921D02*
X41932339Y3655740D01*
X41932339Y3655740D02*
X41932339Y3771854D01*
X41932339Y3771854D02*
X41971043Y3926673D01*
X41971043Y3926673D02*
X42009748Y4004082D01*
X42009748Y4004082D02*
X42087158Y4081492D01*
X42087158Y4081492D02*
X42203272Y4120197D01*
X42203272Y4120197D02*
X42280681Y4120197D01*
X42280681Y4120197D02*
X42396796Y4081492D01*
X42396796Y4081492D02*
X42435500Y4042787D01*
X43016072Y4120197D02*
X43016072Y3539625D01*
X43016072Y3539625D02*
X42977367Y3423511D01*
X42977367Y3423511D02*
X42899958Y3346101D01*
X42899958Y3346101D02*
X42783843Y3307397D01*
X42783843Y3307397D02*
X42706434Y3307397D01*
X43790167Y3307397D02*
X43403119Y3307397D01*
X43403119Y3307397D02*
X43403119Y4120197D01*
X44525557Y3384806D02*
X44486853Y3346101D01*
X44486853Y3346101D02*
X44370738Y3307397D01*
X44370738Y3307397D02*
X44293329Y3307397D01*
X44293329Y3307397D02*
X44177215Y3346101D01*
X44177215Y3346101D02*
X44099805Y3423511D01*
X44099805Y3423511D02*
X44061100Y3500921D01*
X44061100Y3500921D02*
X44022396Y3655740D01*
X44022396Y3655740D02*
X44022396Y3771854D01*
X44022396Y3771854D02*
X44061100Y3926673D01*
X44061100Y3926673D02*
X44099805Y4004082D01*
X44099805Y4004082D02*
X44177215Y4081492D01*
X44177215Y4081492D02*
X44293329Y4120197D01*
X44293329Y4120197D02*
X44370738Y4120197D01*
X44370738Y4120197D02*
X44486853Y4081492D01*
X44486853Y4081492D02*
X44525557Y4042787D01*
X45106129Y4120197D02*
X45106129Y3539625D01*
X45106129Y3539625D02*
X45067424Y3423511D01*
X45067424Y3423511D02*
X44990015Y3346101D01*
X44990015Y3346101D02*
X44873900Y3307397D01*
X44873900Y3307397D02*
X44796491Y3307397D01*
X45880224Y3307397D02*
X45493176Y3307397D01*
X45493176Y3307397D02*
X45493176Y4120197D01*
X46615614Y3384806D02*
X46576910Y3346101D01*
X46576910Y3346101D02*
X46460795Y3307397D01*
X46460795Y3307397D02*
X46383386Y3307397D01*
X46383386Y3307397D02*
X46267272Y3346101D01*
X46267272Y3346101D02*
X46189862Y3423511D01*
X46189862Y3423511D02*
X46151157Y3500921D01*
X46151157Y3500921D02*
X46112453Y3655740D01*
X46112453Y3655740D02*
X46112453Y3771854D01*
X46112453Y3771854D02*
X46151157Y3926673D01*
X46151157Y3926673D02*
X46189862Y4004082D01*
X46189862Y4004082D02*
X46267272Y4081492D01*
X46267272Y4081492D02*
X46383386Y4120197D01*
X46383386Y4120197D02*
X46460795Y4120197D01*
X46460795Y4120197D02*
X46576910Y4081492D01*
X46576910Y4081492D02*
X46615614Y4042787D01*
X47196186Y4120197D02*
X47196186Y3539625D01*
X47196186Y3539625D02*
X47157481Y3423511D01*
X47157481Y3423511D02*
X47080072Y3346101D01*
X47080072Y3346101D02*
X46963957Y3307397D01*
X46963957Y3307397D02*
X46886548Y3307397D01*
X47970281Y3307397D02*
X47583233Y3307397D01*
X47583233Y3307397D02*
X47583233Y4120197D01*
X48705671Y3384806D02*
X48666967Y3346101D01*
X48666967Y3346101D02*
X48550852Y3307397D01*
X48550852Y3307397D02*
X48473443Y3307397D01*
X48473443Y3307397D02*
X48357329Y3346101D01*
X48357329Y3346101D02*
X48279919Y3423511D01*
X48279919Y3423511D02*
X48241214Y3500921D01*
X48241214Y3500921D02*
X48202510Y3655740D01*
X48202510Y3655740D02*
X48202510Y3771854D01*
X48202510Y3771854D02*
X48241214Y3926673D01*
X48241214Y3926673D02*
X48279919Y4004082D01*
X48279919Y4004082D02*
X48357329Y4081492D01*
X48357329Y4081492D02*
X48473443Y4120197D01*
X48473443Y4120197D02*
X48550852Y4120197D01*
X48550852Y4120197D02*
X48666967Y4081492D01*
X48666967Y4081492D02*
X48705671Y4042787D01*
X61358243Y28584806D02*
X61319539Y28546101D01*
X61319539Y28546101D02*
X61203424Y28507397D01*
X61203424Y28507397D02*
X61126015Y28507397D01*
X61126015Y28507397D02*
X61009901Y28546101D01*
X61009901Y28546101D02*
X60932491Y28623511D01*
X60932491Y28623511D02*
X60893786Y28700921D01*
X60893786Y28700921D02*
X60855082Y28855740D01*
X60855082Y28855740D02*
X60855082Y28971854D01*
X60855082Y28971854D02*
X60893786Y29126673D01*
X60893786Y29126673D02*
X60932491Y29204082D01*
X60932491Y29204082D02*
X61009901Y29281492D01*
X61009901Y29281492D02*
X61126015Y29320197D01*
X61126015Y29320197D02*
X61203424Y29320197D01*
X61203424Y29320197D02*
X61319539Y29281492D01*
X61319539Y29281492D02*
X61358243Y29242787D01*
X62093634Y28507397D02*
X61706586Y28507397D01*
X61706586Y28507397D02*
X61706586Y29320197D01*
X62364567Y28507397D02*
X62364567Y29320197D01*
X62829024Y28507397D02*
X62480682Y28971854D01*
X62829024Y29320197D02*
X62364567Y28855740D01*
X60893786Y26107397D02*
X60893786Y26920197D01*
X60893786Y26533149D02*
X61358243Y26533149D01*
X61358243Y26107397D02*
X61358243Y26920197D01*
X62132339Y26107397D02*
X61745291Y26107397D01*
X61745291Y26107397D02*
X61745291Y26920197D01*
X62287158Y26920197D02*
X62751615Y26920197D01*
X62519387Y26107397D02*
X62519387Y26920197D01*
X60893786Y31384806D02*
X60932491Y31346101D01*
X60932491Y31346101D02*
X60893786Y31307397D01*
X60893786Y31307397D02*
X60855082Y31346101D01*
X60855082Y31346101D02*
X60893786Y31384806D01*
X60893786Y31384806D02*
X60893786Y31307397D01*
X60893786Y31617035D02*
X60855082Y32081492D01*
X60855082Y32081492D02*
X60893786Y32120197D01*
X60893786Y32120197D02*
X60932491Y32081492D01*
X60932491Y32081492D02*
X60893786Y31617035D01*
X60893786Y31617035D02*
X60893786Y32120197D01*
X61745291Y31384806D02*
X61706587Y31346101D01*
X61706587Y31346101D02*
X61590472Y31307397D01*
X61590472Y31307397D02*
X61513063Y31307397D01*
X61513063Y31307397D02*
X61396949Y31346101D01*
X61396949Y31346101D02*
X61319539Y31423511D01*
X61319539Y31423511D02*
X61280834Y31500921D01*
X61280834Y31500921D02*
X61242130Y31655740D01*
X61242130Y31655740D02*
X61242130Y31771854D01*
X61242130Y31771854D02*
X61280834Y31926673D01*
X61280834Y31926673D02*
X61319539Y32004082D01*
X61319539Y32004082D02*
X61396949Y32081492D01*
X61396949Y32081492D02*
X61513063Y32120197D01*
X61513063Y32120197D02*
X61590472Y32120197D01*
X61590472Y32120197D02*
X61706587Y32081492D01*
X61706587Y32081492D02*
X61745291Y32042787D01*
X62480682Y31307397D02*
X62093634Y31307397D01*
X62093634Y31307397D02*
X62093634Y32120197D01*
X62751615Y31307397D02*
X62751615Y32120197D01*
X63216072Y31307397D02*
X62867730Y31771854D01*
X63216072Y32120197D02*
X62751615Y31655740D01*
X41158243Y5184806D02*
X41119539Y5146101D01*
X41119539Y5146101D02*
X41003424Y5107397D01*
X41003424Y5107397D02*
X40926015Y5107397D01*
X40926015Y5107397D02*
X40809901Y5146101D01*
X40809901Y5146101D02*
X40732491Y5223511D01*
X40732491Y5223511D02*
X40693786Y5300921D01*
X40693786Y5300921D02*
X40655082Y5455740D01*
X40655082Y5455740D02*
X40655082Y5571854D01*
X40655082Y5571854D02*
X40693786Y5726673D01*
X40693786Y5726673D02*
X40732491Y5804082D01*
X40732491Y5804082D02*
X40809901Y5881492D01*
X40809901Y5881492D02*
X40926015Y5920197D01*
X40926015Y5920197D02*
X41003424Y5920197D01*
X41003424Y5920197D02*
X41119539Y5881492D01*
X41119539Y5881492D02*
X41158243Y5842787D01*
X41622701Y5107397D02*
X41545291Y5146101D01*
X41545291Y5146101D02*
X41506586Y5223511D01*
X41506586Y5223511D02*
X41506586Y5920197D01*
X42048453Y5107397D02*
X41971043Y5146101D01*
X41971043Y5146101D02*
X41932338Y5184806D01*
X41932338Y5184806D02*
X41893634Y5262216D01*
X41893634Y5262216D02*
X41893634Y5494444D01*
X41893634Y5494444D02*
X41932338Y5571854D01*
X41932338Y5571854D02*
X41971043Y5610559D01*
X41971043Y5610559D02*
X42048453Y5649263D01*
X42048453Y5649263D02*
X42164567Y5649263D01*
X42164567Y5649263D02*
X42241976Y5610559D01*
X42241976Y5610559D02*
X42280681Y5571854D01*
X42280681Y5571854D02*
X42319386Y5494444D01*
X42319386Y5494444D02*
X42319386Y5262216D01*
X42319386Y5262216D02*
X42280681Y5184806D01*
X42280681Y5184806D02*
X42241976Y5146101D01*
X42241976Y5146101D02*
X42164567Y5107397D01*
X42164567Y5107397D02*
X42048453Y5107397D01*
X43016071Y5146101D02*
X42938662Y5107397D01*
X42938662Y5107397D02*
X42783843Y5107397D01*
X42783843Y5107397D02*
X42706433Y5146101D01*
X42706433Y5146101D02*
X42667728Y5184806D01*
X42667728Y5184806D02*
X42629024Y5262216D01*
X42629024Y5262216D02*
X42629024Y5494444D01*
X42629024Y5494444D02*
X42667728Y5571854D01*
X42667728Y5571854D02*
X42706433Y5610559D01*
X42706433Y5610559D02*
X42783843Y5649263D01*
X42783843Y5649263D02*
X42938662Y5649263D01*
X42938662Y5649263D02*
X43016071Y5610559D01*
X43364414Y5107397D02*
X43364414Y5920197D01*
X43441824Y5417035D02*
X43674052Y5107397D01*
X43674052Y5649263D02*
X43364414Y5339625D01*
X44641671Y5107397D02*
X44641671Y5920197D01*
X44641671Y5920197D02*
X44912605Y5339625D01*
X44912605Y5339625D02*
X45183538Y5920197D01*
X45183538Y5920197D02*
X45183538Y5107397D01*
X45686700Y5107397D02*
X45609290Y5146101D01*
X45609290Y5146101D02*
X45570585Y5184806D01*
X45570585Y5184806D02*
X45531881Y5262216D01*
X45531881Y5262216D02*
X45531881Y5494444D01*
X45531881Y5494444D02*
X45570585Y5571854D01*
X45570585Y5571854D02*
X45609290Y5610559D01*
X45609290Y5610559D02*
X45686700Y5649263D01*
X45686700Y5649263D02*
X45802814Y5649263D01*
X45802814Y5649263D02*
X45880223Y5610559D01*
X45880223Y5610559D02*
X45918928Y5571854D01*
X45918928Y5571854D02*
X45957633Y5494444D01*
X45957633Y5494444D02*
X45957633Y5262216D01*
X45957633Y5262216D02*
X45918928Y5184806D01*
X45918928Y5184806D02*
X45880223Y5146101D01*
X45880223Y5146101D02*
X45802814Y5107397D01*
X45802814Y5107397D02*
X45686700Y5107397D01*
X46654318Y5107397D02*
X46654318Y5920197D01*
X46654318Y5146101D02*
X46576909Y5107397D01*
X46576909Y5107397D02*
X46422090Y5107397D01*
X46422090Y5107397D02*
X46344680Y5146101D01*
X46344680Y5146101D02*
X46305975Y5184806D01*
X46305975Y5184806D02*
X46267271Y5262216D01*
X46267271Y5262216D02*
X46267271Y5494444D01*
X46267271Y5494444D02*
X46305975Y5571854D01*
X46305975Y5571854D02*
X46344680Y5610559D01*
X46344680Y5610559D02*
X46422090Y5649263D01*
X46422090Y5649263D02*
X46576909Y5649263D01*
X46576909Y5649263D02*
X46654318Y5610559D01*
X47389708Y5649263D02*
X47389708Y5107397D01*
X47041365Y5649263D02*
X47041365Y5223511D01*
X47041365Y5223511D02*
X47080070Y5146101D01*
X47080070Y5146101D02*
X47157480Y5107397D01*
X47157480Y5107397D02*
X47273594Y5107397D01*
X47273594Y5107397D02*
X47351003Y5146101D01*
X47351003Y5146101D02*
X47389708Y5184806D01*
X47892870Y5107397D02*
X47815460Y5146101D01*
X47815460Y5146101D02*
X47776755Y5223511D01*
X47776755Y5223511D02*
X47776755Y5920197D01*
X48512145Y5146101D02*
X48434736Y5107397D01*
X48434736Y5107397D02*
X48279917Y5107397D01*
X48279917Y5107397D02*
X48202507Y5146101D01*
X48202507Y5146101D02*
X48163803Y5223511D01*
X48163803Y5223511D02*
X48163803Y5533149D01*
X48163803Y5533149D02*
X48202507Y5610559D01*
X48202507Y5610559D02*
X48279917Y5649263D01*
X48279917Y5649263D02*
X48434736Y5649263D01*
X48434736Y5649263D02*
X48512145Y5610559D01*
X48512145Y5610559D02*
X48550850Y5533149D01*
X48550850Y5533149D02*
X48550850Y5455740D01*
X48550850Y5455740D02*
X48163803Y5378330D01*
X11493786Y5615959D02*
X11493786Y6428759D01*
X11493786Y6428759D02*
X11764720Y5848187D01*
X11764720Y5848187D02*
X12035653Y6428759D01*
X12035653Y6428759D02*
X12035653Y5615959D01*
X12771043Y5615959D02*
X12771043Y6041711D01*
X12771043Y6041711D02*
X12732338Y6119121D01*
X12732338Y6119121D02*
X12654929Y6157825D01*
X12654929Y6157825D02*
X12500110Y6157825D01*
X12500110Y6157825D02*
X12422700Y6119121D01*
X12771043Y5654663D02*
X12693634Y5615959D01*
X12693634Y5615959D02*
X12500110Y5615959D01*
X12500110Y5615959D02*
X12422700Y5654663D01*
X12422700Y5654663D02*
X12383996Y5732073D01*
X12383996Y5732073D02*
X12383996Y5809483D01*
X12383996Y5809483D02*
X12422700Y5886892D01*
X12422700Y5886892D02*
X12500110Y5925597D01*
X12500110Y5925597D02*
X12693634Y5925597D01*
X12693634Y5925597D02*
X12771043Y5964302D01*
X13506433Y5615959D02*
X13506433Y6428759D01*
X13506433Y5654663D02*
X13429024Y5615959D01*
X13429024Y5615959D02*
X13274205Y5615959D01*
X13274205Y5615959D02*
X13196795Y5654663D01*
X13196795Y5654663D02*
X13158090Y5693368D01*
X13158090Y5693368D02*
X13119386Y5770778D01*
X13119386Y5770778D02*
X13119386Y6003006D01*
X13119386Y6003006D02*
X13158090Y6080416D01*
X13158090Y6080416D02*
X13196795Y6119121D01*
X13196795Y6119121D02*
X13274205Y6157825D01*
X13274205Y6157825D02*
X13429024Y6157825D01*
X13429024Y6157825D02*
X13506433Y6119121D01*
X14203118Y5654663D02*
X14125709Y5615959D01*
X14125709Y5615959D02*
X13970890Y5615959D01*
X13970890Y5615959D02*
X13893480Y5654663D01*
X13893480Y5654663D02*
X13854776Y5732073D01*
X13854776Y5732073D02*
X13854776Y6041711D01*
X13854776Y6041711D02*
X13893480Y6119121D01*
X13893480Y6119121D02*
X13970890Y6157825D01*
X13970890Y6157825D02*
X14125709Y6157825D01*
X14125709Y6157825D02*
X14203118Y6119121D01*
X14203118Y6119121D02*
X14241823Y6041711D01*
X14241823Y6041711D02*
X14241823Y5964302D01*
X14241823Y5964302D02*
X13854776Y5886892D01*
X15209442Y5615959D02*
X15209442Y6428759D01*
X15209442Y6119121D02*
X15286852Y6157825D01*
X15286852Y6157825D02*
X15441671Y6157825D01*
X15441671Y6157825D02*
X15519080Y6119121D01*
X15519080Y6119121D02*
X15557785Y6080416D01*
X15557785Y6080416D02*
X15596490Y6003006D01*
X15596490Y6003006D02*
X15596490Y5770778D01*
X15596490Y5770778D02*
X15557785Y5693368D01*
X15557785Y5693368D02*
X15519080Y5654663D01*
X15519080Y5654663D02*
X15441671Y5615959D01*
X15441671Y5615959D02*
X15286852Y5615959D01*
X15286852Y5615959D02*
X15209442Y5654663D01*
X15867423Y6157825D02*
X16060947Y5615959D01*
X16254470Y6157825D02*
X16060947Y5615959D01*
X16060947Y5615959D02*
X15983537Y5422435D01*
X15983537Y5422435D02*
X15944832Y5383730D01*
X15944832Y5383730D02*
X15867423Y5345025D01*
X16564108Y5693368D02*
X16602813Y5654663D01*
X16602813Y5654663D02*
X16564108Y5615959D01*
X16564108Y5615959D02*
X16525404Y5654663D01*
X16525404Y5654663D02*
X16564108Y5693368D01*
X16564108Y5693368D02*
X16564108Y5615959D01*
X16564108Y6119121D02*
X16602813Y6080416D01*
X16602813Y6080416D02*
X16564108Y6041711D01*
X16564108Y6041711D02*
X16525404Y6080416D01*
X16525404Y6080416D02*
X16564108Y6119121D01*
X16564108Y6119121D02*
X16564108Y6041711D01*
X17996185Y6390054D02*
X17918775Y6428759D01*
X17918775Y6428759D02*
X17802661Y6428759D01*
X17802661Y6428759D02*
X17686547Y6390054D01*
X17686547Y6390054D02*
X17609137Y6312644D01*
X17609137Y6312644D02*
X17570432Y6235235D01*
X17570432Y6235235D02*
X17531728Y6080416D01*
X17531728Y6080416D02*
X17531728Y5964302D01*
X17531728Y5964302D02*
X17570432Y5809483D01*
X17570432Y5809483D02*
X17609137Y5732073D01*
X17609137Y5732073D02*
X17686547Y5654663D01*
X17686547Y5654663D02*
X17802661Y5615959D01*
X17802661Y5615959D02*
X17880070Y5615959D01*
X17880070Y5615959D02*
X17996185Y5654663D01*
X17996185Y5654663D02*
X18034889Y5693368D01*
X18034889Y5693368D02*
X18034889Y5964302D01*
X18034889Y5964302D02*
X17880070Y5964302D01*
X18731575Y6157825D02*
X18731575Y5615959D01*
X18383232Y6157825D02*
X18383232Y5732073D01*
X18383232Y5732073D02*
X18421937Y5654663D01*
X18421937Y5654663D02*
X18499347Y5615959D01*
X18499347Y5615959D02*
X18615461Y5615959D01*
X18615461Y5615959D02*
X18692870Y5654663D01*
X18692870Y5654663D02*
X18731575Y5693368D01*
X19079918Y5654663D02*
X19157327Y5615959D01*
X19157327Y5615959D02*
X19312146Y5615959D01*
X19312146Y5615959D02*
X19389556Y5654663D01*
X19389556Y5654663D02*
X19428260Y5732073D01*
X19428260Y5732073D02*
X19428260Y5770778D01*
X19428260Y5770778D02*
X19389556Y5848187D01*
X19389556Y5848187D02*
X19312146Y5886892D01*
X19312146Y5886892D02*
X19196032Y5886892D01*
X19196032Y5886892D02*
X19118622Y5925597D01*
X19118622Y5925597D02*
X19079918Y6003006D01*
X19079918Y6003006D02*
X19079918Y6041711D01*
X19079918Y6041711D02*
X19118622Y6119121D01*
X19118622Y6119121D02*
X19196032Y6157825D01*
X19196032Y6157825D02*
X19312146Y6157825D01*
X19312146Y6157825D02*
X19389556Y6119121D01*
X19660489Y6157825D02*
X19970127Y6157825D01*
X19776603Y6428759D02*
X19776603Y5732073D01*
X19776603Y5732073D02*
X19815308Y5654663D01*
X19815308Y5654663D02*
X19892718Y5615959D01*
X19892718Y5615959D02*
X19970127Y5615959D01*
X20589403Y5615959D02*
X20589403Y6041711D01*
X20589403Y6041711D02*
X20550698Y6119121D01*
X20550698Y6119121D02*
X20473289Y6157825D01*
X20473289Y6157825D02*
X20318470Y6157825D01*
X20318470Y6157825D02*
X20241060Y6119121D01*
X20589403Y5654663D02*
X20511994Y5615959D01*
X20511994Y5615959D02*
X20318470Y5615959D01*
X20318470Y5615959D02*
X20241060Y5654663D01*
X20241060Y5654663D02*
X20202356Y5732073D01*
X20202356Y5732073D02*
X20202356Y5809483D01*
X20202356Y5809483D02*
X20241060Y5886892D01*
X20241060Y5886892D02*
X20318470Y5925597D01*
X20318470Y5925597D02*
X20511994Y5925597D01*
X20511994Y5925597D02*
X20589403Y5964302D01*
X20899041Y6157825D02*
X21092565Y5615959D01*
X21092565Y5615959D02*
X21286088Y6157825D01*
X21711841Y5615959D02*
X21634431Y5654663D01*
X21634431Y5654663D02*
X21595726Y5693368D01*
X21595726Y5693368D02*
X21557022Y5770778D01*
X21557022Y5770778D02*
X21557022Y6003006D01*
X21557022Y6003006D02*
X21595726Y6080416D01*
X21595726Y6080416D02*
X21634431Y6119121D01*
X21634431Y6119121D02*
X21711841Y6157825D01*
X21711841Y6157825D02*
X21827955Y6157825D01*
X21827955Y6157825D02*
X21905364Y6119121D01*
X21905364Y6119121D02*
X21944069Y6080416D01*
X21944069Y6080416D02*
X21982774Y6003006D01*
X21982774Y6003006D02*
X21982774Y5770778D01*
X21982774Y5770778D02*
X21944069Y5693368D01*
X21944069Y5693368D02*
X21905364Y5654663D01*
X21905364Y5654663D02*
X21827955Y5615959D01*
X21827955Y5615959D02*
X21711841Y5615959D01*
X23414849Y5693368D02*
X23376145Y5654663D01*
X23376145Y5654663D02*
X23260030Y5615959D01*
X23260030Y5615959D02*
X23182621Y5615959D01*
X23182621Y5615959D02*
X23066507Y5654663D01*
X23066507Y5654663D02*
X22989097Y5732073D01*
X22989097Y5732073D02*
X22950392Y5809483D01*
X22950392Y5809483D02*
X22911688Y5964302D01*
X22911688Y5964302D02*
X22911688Y6080416D01*
X22911688Y6080416D02*
X22950392Y6235235D01*
X22950392Y6235235D02*
X22989097Y6312644D01*
X22989097Y6312644D02*
X23066507Y6390054D01*
X23066507Y6390054D02*
X23182621Y6428759D01*
X23182621Y6428759D02*
X23260030Y6428759D01*
X23260030Y6428759D02*
X23376145Y6390054D01*
X23376145Y6390054D02*
X23414849Y6351349D01*
X24111535Y5615959D02*
X24111535Y6041711D01*
X24111535Y6041711D02*
X24072830Y6119121D01*
X24072830Y6119121D02*
X23995421Y6157825D01*
X23995421Y6157825D02*
X23840602Y6157825D01*
X23840602Y6157825D02*
X23763192Y6119121D01*
X24111535Y5654663D02*
X24034126Y5615959D01*
X24034126Y5615959D02*
X23840602Y5615959D01*
X23840602Y5615959D02*
X23763192Y5654663D01*
X23763192Y5654663D02*
X23724488Y5732073D01*
X23724488Y5732073D02*
X23724488Y5809483D01*
X23724488Y5809483D02*
X23763192Y5886892D01*
X23763192Y5886892D02*
X23840602Y5925597D01*
X23840602Y5925597D02*
X24034126Y5925597D01*
X24034126Y5925597D02*
X24111535Y5964302D01*
X24808220Y5654663D02*
X24730811Y5615959D01*
X24730811Y5615959D02*
X24575992Y5615959D01*
X24575992Y5615959D02*
X24498582Y5654663D01*
X24498582Y5654663D02*
X24459878Y5732073D01*
X24459878Y5732073D02*
X24459878Y6041711D01*
X24459878Y6041711D02*
X24498582Y6119121D01*
X24498582Y6119121D02*
X24575992Y6157825D01*
X24575992Y6157825D02*
X24730811Y6157825D01*
X24730811Y6157825D02*
X24808220Y6119121D01*
X24808220Y6119121D02*
X24846925Y6041711D01*
X24846925Y6041711D02*
X24846925Y5964302D01*
X24846925Y5964302D02*
X24459878Y5886892D01*
X25079154Y6157825D02*
X25388792Y6157825D01*
X25195268Y6428759D02*
X25195268Y5732073D01*
X25195268Y5732073D02*
X25233973Y5654663D01*
X25233973Y5654663D02*
X25311383Y5615959D01*
X25311383Y5615959D02*
X25388792Y5615959D01*
X26008068Y5615959D02*
X26008068Y6041711D01*
X26008068Y6041711D02*
X25969363Y6119121D01*
X25969363Y6119121D02*
X25891954Y6157825D01*
X25891954Y6157825D02*
X25737135Y6157825D01*
X25737135Y6157825D02*
X25659725Y6119121D01*
X26008068Y5654663D02*
X25930659Y5615959D01*
X25930659Y5615959D02*
X25737135Y5615959D01*
X25737135Y5615959D02*
X25659725Y5654663D01*
X25659725Y5654663D02*
X25621021Y5732073D01*
X25621021Y5732073D02*
X25621021Y5809483D01*
X25621021Y5809483D02*
X25659725Y5886892D01*
X25659725Y5886892D02*
X25737135Y5925597D01*
X25737135Y5925597D02*
X25930659Y5925597D01*
X25930659Y5925597D02*
X26008068Y5964302D01*
X26395115Y6157825D02*
X26395115Y5615959D01*
X26395115Y6080416D02*
X26433820Y6119121D01*
X26433820Y6119121D02*
X26511230Y6157825D01*
X26511230Y6157825D02*
X26627344Y6157825D01*
X26627344Y6157825D02*
X26704753Y6119121D01*
X26704753Y6119121D02*
X26743458Y6041711D01*
X26743458Y6041711D02*
X26743458Y5615959D01*
X27246620Y5615959D02*
X27169210Y5654663D01*
X27169210Y5654663D02*
X27130505Y5693368D01*
X27130505Y5693368D02*
X27091801Y5770778D01*
X27091801Y5770778D02*
X27091801Y6003006D01*
X27091801Y6003006D02*
X27130505Y6080416D01*
X27130505Y6080416D02*
X27169210Y6119121D01*
X27169210Y6119121D02*
X27246620Y6157825D01*
X27246620Y6157825D02*
X27362734Y6157825D01*
X27362734Y6157825D02*
X27440143Y6119121D01*
X27440143Y6119121D02*
X27478848Y6080416D01*
X27478848Y6080416D02*
X27517553Y6003006D01*
X27517553Y6003006D02*
X27517553Y5770778D01*
X27517553Y5770778D02*
X27478848Y5693368D01*
X27478848Y5693368D02*
X27440143Y5654663D01*
X27440143Y5654663D02*
X27362734Y5615959D01*
X27362734Y5615959D02*
X27246620Y5615959D01*
X28833514Y5615959D02*
X28833514Y6428759D01*
X28833514Y5654663D02*
X28756105Y5615959D01*
X28756105Y5615959D02*
X28601286Y5615959D01*
X28601286Y5615959D02*
X28523876Y5654663D01*
X28523876Y5654663D02*
X28485171Y5693368D01*
X28485171Y5693368D02*
X28446467Y5770778D01*
X28446467Y5770778D02*
X28446467Y6003006D01*
X28446467Y6003006D02*
X28485171Y6080416D01*
X28485171Y6080416D02*
X28523876Y6119121D01*
X28523876Y6119121D02*
X28601286Y6157825D01*
X28601286Y6157825D02*
X28756105Y6157825D01*
X28756105Y6157825D02*
X28833514Y6119121D01*
X29568904Y5615959D02*
X29568904Y6041711D01*
X29568904Y6041711D02*
X29530199Y6119121D01*
X29530199Y6119121D02*
X29452790Y6157825D01*
X29452790Y6157825D02*
X29297971Y6157825D01*
X29297971Y6157825D02*
X29220561Y6119121D01*
X29568904Y5654663D02*
X29491495Y5615959D01*
X29491495Y5615959D02*
X29297971Y5615959D01*
X29297971Y5615959D02*
X29220561Y5654663D01*
X29220561Y5654663D02*
X29181857Y5732073D01*
X29181857Y5732073D02*
X29181857Y5809483D01*
X29181857Y5809483D02*
X29220561Y5886892D01*
X29220561Y5886892D02*
X29297971Y5925597D01*
X29297971Y5925597D02*
X29491495Y5925597D01*
X29491495Y5925597D02*
X29568904Y5964302D01*
X30536523Y5654663D02*
X30652637Y5615959D01*
X30652637Y5615959D02*
X30846161Y5615959D01*
X30846161Y5615959D02*
X30923570Y5654663D01*
X30923570Y5654663D02*
X30962275Y5693368D01*
X30962275Y5693368D02*
X31000980Y5770778D01*
X31000980Y5770778D02*
X31000980Y5848187D01*
X31000980Y5848187D02*
X30962275Y5925597D01*
X30962275Y5925597D02*
X30923570Y5964302D01*
X30923570Y5964302D02*
X30846161Y6003006D01*
X30846161Y6003006D02*
X30691342Y6041711D01*
X30691342Y6041711D02*
X30613932Y6080416D01*
X30613932Y6080416D02*
X30575227Y6119121D01*
X30575227Y6119121D02*
X30536523Y6196530D01*
X30536523Y6196530D02*
X30536523Y6273940D01*
X30536523Y6273940D02*
X30575227Y6351349D01*
X30575227Y6351349D02*
X30613932Y6390054D01*
X30613932Y6390054D02*
X30691342Y6428759D01*
X30691342Y6428759D02*
X30884865Y6428759D01*
X30884865Y6428759D02*
X31000980Y6390054D01*
X31349322Y5615959D02*
X31349322Y6157825D01*
X31349322Y6428759D02*
X31310618Y6390054D01*
X31310618Y6390054D02*
X31349322Y6351349D01*
X31349322Y6351349D02*
X31388027Y6390054D01*
X31388027Y6390054D02*
X31349322Y6428759D01*
X31349322Y6428759D02*
X31349322Y6351349D01*
X31852485Y5615959D02*
X31775075Y5654663D01*
X31775075Y5654663D02*
X31736370Y5732073D01*
X31736370Y5732073D02*
X31736370Y6428759D01*
X32084713Y6157825D02*
X32278237Y5615959D01*
X32278237Y5615959D02*
X32471760Y6157825D01*
X33129741Y5615959D02*
X33129741Y6041711D01*
X33129741Y6041711D02*
X33091036Y6119121D01*
X33091036Y6119121D02*
X33013627Y6157825D01*
X33013627Y6157825D02*
X32858808Y6157825D01*
X32858808Y6157825D02*
X32781398Y6119121D01*
X33129741Y5654663D02*
X33052332Y5615959D01*
X33052332Y5615959D02*
X32858808Y5615959D01*
X32858808Y5615959D02*
X32781398Y5654663D01*
X32781398Y5654663D02*
X32742694Y5732073D01*
X32742694Y5732073D02*
X32742694Y5809483D01*
X32742694Y5809483D02*
X32781398Y5886892D01*
X32781398Y5886892D02*
X32858808Y5925597D01*
X32858808Y5925597D02*
X33052332Y5925597D01*
X33052332Y5925597D02*
X33129741Y5964302D01*
X11377672Y5120197D02*
X11648605Y4307397D01*
X11648605Y4307397D02*
X11919539Y5120197D01*
X12500110Y4346101D02*
X12422701Y4307397D01*
X12422701Y4307397D02*
X12267882Y4307397D01*
X12267882Y4307397D02*
X12190472Y4346101D01*
X12190472Y4346101D02*
X12151768Y4423511D01*
X12151768Y4423511D02*
X12151768Y4733149D01*
X12151768Y4733149D02*
X12190472Y4810559D01*
X12190472Y4810559D02*
X12267882Y4849263D01*
X12267882Y4849263D02*
X12422701Y4849263D01*
X12422701Y4849263D02*
X12500110Y4810559D01*
X12500110Y4810559D02*
X12538815Y4733149D01*
X12538815Y4733149D02*
X12538815Y4655740D01*
X12538815Y4655740D02*
X12151768Y4578330D01*
X12887158Y4307397D02*
X12887158Y4849263D01*
X12887158Y4694444D02*
X12925863Y4771854D01*
X12925863Y4771854D02*
X12964568Y4810559D01*
X12964568Y4810559D02*
X13041977Y4849263D01*
X13041977Y4849263D02*
X13119387Y4849263D01*
X13351616Y4346101D02*
X13429025Y4307397D01*
X13429025Y4307397D02*
X13583844Y4307397D01*
X13583844Y4307397D02*
X13661254Y4346101D01*
X13661254Y4346101D02*
X13699958Y4423511D01*
X13699958Y4423511D02*
X13699958Y4462216D01*
X13699958Y4462216D02*
X13661254Y4539625D01*
X13661254Y4539625D02*
X13583844Y4578330D01*
X13583844Y4578330D02*
X13467730Y4578330D01*
X13467730Y4578330D02*
X13390320Y4617035D01*
X13390320Y4617035D02*
X13351616Y4694444D01*
X13351616Y4694444D02*
X13351616Y4733149D01*
X13351616Y4733149D02*
X13390320Y4810559D01*
X13390320Y4810559D02*
X13467730Y4849263D01*
X13467730Y4849263D02*
X13583844Y4849263D01*
X13583844Y4849263D02*
X13661254Y4810559D01*
X14048301Y4307397D02*
X14048301Y4849263D01*
X14048301Y5120197D02*
X14009597Y5081492D01*
X14009597Y5081492D02*
X14048301Y5042787D01*
X14048301Y5042787D02*
X14087006Y5081492D01*
X14087006Y5081492D02*
X14048301Y5120197D01*
X14048301Y5120197D02*
X14048301Y5042787D01*
X14551464Y4307397D02*
X14474054Y4346101D01*
X14474054Y4346101D02*
X14435349Y4384806D01*
X14435349Y4384806D02*
X14396645Y4462216D01*
X14396645Y4462216D02*
X14396645Y4694444D01*
X14396645Y4694444D02*
X14435349Y4771854D01*
X14435349Y4771854D02*
X14474054Y4810559D01*
X14474054Y4810559D02*
X14551464Y4849263D01*
X14551464Y4849263D02*
X14667578Y4849263D01*
X14667578Y4849263D02*
X14744987Y4810559D01*
X14744987Y4810559D02*
X14783692Y4771854D01*
X14783692Y4771854D02*
X14822397Y4694444D01*
X14822397Y4694444D02*
X14822397Y4462216D01*
X14822397Y4462216D02*
X14783692Y4384806D01*
X14783692Y4384806D02*
X14744987Y4346101D01*
X14744987Y4346101D02*
X14667578Y4307397D01*
X14667578Y4307397D02*
X14551464Y4307397D01*
X15170739Y4849263D02*
X15170739Y4307397D01*
X15170739Y4771854D02*
X15209444Y4810559D01*
X15209444Y4810559D02*
X15286854Y4849263D01*
X15286854Y4849263D02*
X15402968Y4849263D01*
X15402968Y4849263D02*
X15480377Y4810559D01*
X15480377Y4810559D02*
X15519082Y4733149D01*
X15519082Y4733149D02*
X15519082Y4307397D01*
X15906129Y4384806D02*
X15944834Y4346101D01*
X15944834Y4346101D02*
X15906129Y4307397D01*
X15906129Y4307397D02*
X15867425Y4346101D01*
X15867425Y4346101D02*
X15906129Y4384806D01*
X15906129Y4384806D02*
X15906129Y4307397D01*
X15906129Y4810559D02*
X15944834Y4771854D01*
X15944834Y4771854D02*
X15906129Y4733149D01*
X15906129Y4733149D02*
X15867425Y4771854D01*
X15867425Y4771854D02*
X15906129Y4810559D01*
X15906129Y4810559D02*
X15906129Y4733149D01*
X16835044Y4849263D02*
X17028568Y4307397D01*
X17028568Y4307397D02*
X17222091Y4849263D01*
X17957482Y4307397D02*
X17493025Y4307397D01*
X17725253Y4307397D02*
X17725253Y5120197D01*
X17725253Y5120197D02*
X17647844Y5004082D01*
X17647844Y5004082D02*
X17570434Y4926673D01*
X17570434Y4926673D02*
X17493025Y4887968D01*
X18305824Y4384806D02*
X18344529Y4346101D01*
X18344529Y4346101D02*
X18305824Y4307397D01*
X18305824Y4307397D02*
X18267120Y4346101D01*
X18267120Y4346101D02*
X18305824Y4384806D01*
X18305824Y4384806D02*
X18305824Y4307397D01*
X18847691Y5120197D02*
X18925101Y5120197D01*
X18925101Y5120197D02*
X19002510Y5081492D01*
X19002510Y5081492D02*
X19041215Y5042787D01*
X19041215Y5042787D02*
X19079920Y4965378D01*
X19079920Y4965378D02*
X19118625Y4810559D01*
X19118625Y4810559D02*
X19118625Y4617035D01*
X19118625Y4617035D02*
X19079920Y4462216D01*
X19079920Y4462216D02*
X19041215Y4384806D01*
X19041215Y4384806D02*
X19002510Y4346101D01*
X19002510Y4346101D02*
X18925101Y4307397D01*
X18925101Y4307397D02*
X18847691Y4307397D01*
X18847691Y4307397D02*
X18770282Y4346101D01*
X18770282Y4346101D02*
X18731577Y4384806D01*
X18731577Y4384806D02*
X18692872Y4462216D01*
X18692872Y4462216D02*
X18654168Y4617035D01*
X18654168Y4617035D02*
X18654168Y4810559D01*
X18654168Y4810559D02*
X18692872Y4965378D01*
X18692872Y4965378D02*
X18731577Y5042787D01*
X18731577Y5042787D02*
X18770282Y5081492D01*
X18770282Y5081492D02*
X18847691Y5120197D01*
X19466967Y4384806D02*
X19505672Y4346101D01*
X19505672Y4346101D02*
X19466967Y4307397D01*
X19466967Y4307397D02*
X19428263Y4346101D01*
X19428263Y4346101D02*
X19466967Y4384806D01*
X19466967Y4384806D02*
X19466967Y4307397D01*
X20008834Y5120197D02*
X20086244Y5120197D01*
X20086244Y5120197D02*
X20163653Y5081492D01*
X20163653Y5081492D02*
X20202358Y5042787D01*
X20202358Y5042787D02*
X20241063Y4965378D01*
X20241063Y4965378D02*
X20279768Y4810559D01*
X20279768Y4810559D02*
X20279768Y4617035D01*
X20279768Y4617035D02*
X20241063Y4462216D01*
X20241063Y4462216D02*
X20202358Y4384806D01*
X20202358Y4384806D02*
X20163653Y4346101D01*
X20163653Y4346101D02*
X20086244Y4307397D01*
X20086244Y4307397D02*
X20008834Y4307397D01*
X20008834Y4307397D02*
X19931425Y4346101D01*
X19931425Y4346101D02*
X19892720Y4384806D01*
X19892720Y4384806D02*
X19854015Y4462216D01*
X19854015Y4462216D02*
X19815311Y4617035D01*
X19815311Y4617035D02*
X19815311Y4810559D01*
X19815311Y4810559D02*
X19854015Y4965378D01*
X19854015Y4965378D02*
X19892720Y5042787D01*
X19892720Y5042787D02*
X19931425Y5081492D01*
X19931425Y5081492D02*
X20008834Y5120197D01*
D11*
X58738095Y11745181D02*
X58738095Y10935658D01*
X58738095Y10935658D02*
X58785714Y10840420D01*
X58785714Y10840420D02*
X58833333Y10792800D01*
X58833333Y10792800D02*
X58928571Y10745181D01*
X58928571Y10745181D02*
X59119047Y10745181D01*
X59119047Y10745181D02*
X59214285Y10792800D01*
X59214285Y10792800D02*
X59261904Y10840420D01*
X59261904Y10840420D02*
X59309523Y10935658D01*
X59309523Y10935658D02*
X59309523Y11745181D01*
X60309523Y10745181D02*
X59738095Y10745181D01*
X60023809Y10745181D02*
X60023809Y11745181D01*
X60023809Y11745181D02*
X59928571Y11602324D01*
X59928571Y11602324D02*
X59833333Y11507086D01*
X59833333Y11507086D02*
X59738095Y11459467D01*
X22879761Y17745181D02*
X22546428Y18221372D01*
X22308333Y17745181D02*
X22308333Y18745181D01*
X22308333Y18745181D02*
X22689285Y18745181D01*
X22689285Y18745181D02*
X22784523Y18697562D01*
X22784523Y18697562D02*
X22832142Y18649943D01*
X22832142Y18649943D02*
X22879761Y18554705D01*
X22879761Y18554705D02*
X22879761Y18411848D01*
X22879761Y18411848D02*
X22832142Y18316610D01*
X22832142Y18316610D02*
X22784523Y18268991D01*
X22784523Y18268991D02*
X22689285Y18221372D01*
X22689285Y18221372D02*
X22308333Y18221372D01*
X23165476Y18745181D02*
X23498809Y17745181D01*
X23498809Y17745181D02*
X23832142Y18745181D01*
X24689285Y17745181D02*
X24117857Y17745181D01*
X24403571Y17745181D02*
X24403571Y18745181D01*
X24403571Y18745181D02*
X24308333Y18602324D01*
X24308333Y18602324D02*
X24213095Y18507086D01*
X24213095Y18507086D02*
X24117857Y18459467D01*
X58066666Y24625181D02*
X58066666Y23910896D01*
X58066666Y23910896D02*
X58019047Y23768039D01*
X58019047Y23768039D02*
X57923809Y23672800D01*
X57923809Y23672800D02*
X57780952Y23625181D01*
X57780952Y23625181D02*
X57685714Y23625181D01*
X58495238Y24529943D02*
X58542857Y24577562D01*
X58542857Y24577562D02*
X58638095Y24625181D01*
X58638095Y24625181D02*
X58876190Y24625181D01*
X58876190Y24625181D02*
X58971428Y24577562D01*
X58971428Y24577562D02*
X59019047Y24529943D01*
X59019047Y24529943D02*
X59066666Y24434705D01*
X59066666Y24434705D02*
X59066666Y24339467D01*
X59066666Y24339467D02*
X59019047Y24196610D01*
X59019047Y24196610D02*
X58447619Y23625181D01*
X58447619Y23625181D02*
X59066666Y23625181D01*
D10*
X17516267Y22670613D02*
X17632381Y22631909D01*
X17632381Y22631909D02*
X17825905Y22631909D01*
X17825905Y22631909D02*
X17903314Y22670613D01*
X17903314Y22670613D02*
X17942019Y22709318D01*
X17942019Y22709318D02*
X17980724Y22786728D01*
X17980724Y22786728D02*
X17980724Y22864137D01*
X17980724Y22864137D02*
X17942019Y22941547D01*
X17942019Y22941547D02*
X17903314Y22980252D01*
X17903314Y22980252D02*
X17825905Y23018956D01*
X17825905Y23018956D02*
X17671086Y23057661D01*
X17671086Y23057661D02*
X17593676Y23096366D01*
X17593676Y23096366D02*
X17554971Y23135071D01*
X17554971Y23135071D02*
X17516267Y23212480D01*
X17516267Y23212480D02*
X17516267Y23289890D01*
X17516267Y23289890D02*
X17554971Y23367299D01*
X17554971Y23367299D02*
X17593676Y23406004D01*
X17593676Y23406004D02*
X17671086Y23444709D01*
X17671086Y23444709D02*
X17864609Y23444709D01*
X17864609Y23444709D02*
X17980724Y23406004D01*
X18251657Y23444709D02*
X18445181Y22631909D01*
X18445181Y22631909D02*
X18600000Y23212480D01*
X18600000Y23212480D02*
X18754819Y22631909D01*
X18754819Y22631909D02*
X18948343Y23444709D01*
X19683733Y22631909D02*
X19219276Y22631909D01*
X19451504Y22631909D02*
X19451504Y23444709D01*
X19451504Y23444709D02*
X19374095Y23328594D01*
X19374095Y23328594D02*
X19296685Y23251185D01*
X19296685Y23251185D02*
X19219276Y23212480D01*
D12*
%TO.C,U1*%
X59500000Y15360000D02*
X58700000Y15360000D01*
X59500000Y15360000D02*
X60300000Y15360000D01*
X59500000Y12240000D02*
X58700000Y12240000D01*
X59500000Y12240000D02*
X60300000Y12240000D01*
X58200000Y15310000D02*
X57960000Y15640000D01*
X58440000Y15640000D01*
X58200000Y15310000D01*
G36*
X58200000Y15310000D02*
G01*
X57960000Y15640000D01*
X58440000Y15640000D01*
X58200000Y15310000D01*
G37*
%TO.C,U7*%
X27050000Y33125000D02*
X25100000Y33125000D01*
X27050000Y33125000D02*
X29000000Y33125000D01*
X27050000Y24255000D02*
X25100000Y24255000D01*
X27050000Y24255000D02*
X29000000Y24255000D01*
X29990000Y23990000D02*
X29510000Y23990000D01*
X29750000Y24320000D01*
X29990000Y23990000D01*
G36*
X29990000Y23990000D02*
G01*
X29510000Y23990000D01*
X29750000Y24320000D01*
X29990000Y23990000D01*
G37*
%TO.C,RV1*%
X21115000Y15910000D02*
X21115000Y11190000D01*
X21115000Y15910000D02*
X21445000Y15910000D01*
X21115000Y11190000D02*
X22245000Y11190000D01*
X23205000Y15910000D02*
X23745000Y15910000D01*
X24705000Y11190000D02*
X25835000Y11190000D01*
X25505000Y15910000D02*
X25835000Y15910000D01*
X25835000Y15910000D02*
X25835000Y11190000D01*
%TO.C,U5*%
X37700000Y33110000D02*
X35750000Y33110000D01*
X37700000Y33110000D02*
X39650000Y33110000D01*
X37700000Y24240000D02*
X35750000Y24240000D01*
X37700000Y24240000D02*
X39650000Y24240000D01*
X40640000Y23975000D02*
X40160000Y23975000D01*
X40400000Y24305000D01*
X40640000Y23975000D01*
G36*
X40640000Y23975000D02*
G01*
X40160000Y23975000D01*
X40400000Y24305000D01*
X40640000Y23975000D01*
G37*
D11*
%TO.C,U6*%
X10455000Y15855000D02*
X13495000Y15855000D01*
X10455000Y10795000D02*
X10455000Y15855000D01*
X13495000Y15855000D02*
X13495000Y10795000D01*
X13495000Y10795000D02*
X10455000Y10795000D01*
X13755000Y10825000D02*
G75*
G02*
X13695000Y10825000I-30000J0D01*
G01*
X13695000Y10825000D02*
G75*
G02*
X13755000Y10825000I30000J0D01*
G01*
%TO.C,U3*%
X32635000Y15470000D02*
X35675000Y15470000D01*
X32635000Y10410000D02*
X32635000Y15470000D01*
X35675000Y15470000D02*
X35675000Y10410000D01*
X35675000Y10410000D02*
X32635000Y10410000D01*
X35935000Y10440000D02*
G75*
G02*
X35875000Y10440000I-30000J0D01*
G01*
X35875000Y10440000D02*
G75*
G02*
X35935000Y10440000I30000J0D01*
G01*
%TO.C,FB1*%
X56860000Y17110000D02*
X56540000Y17110000D01*
X56860000Y16090000D02*
X56540000Y16090000D01*
%TO.C,D1*%
X16910000Y32640000D02*
X16910000Y31180000D01*
X16910000Y31180000D02*
X19200000Y31180000D01*
X19200000Y32640000D02*
X16910000Y32640000D01*
D12*
%TO.C,J2*%
X57020000Y27730000D02*
X57020000Y32920000D01*
X59780000Y32920000D02*
X57020000Y32920000D01*
X59780000Y27730000D02*
X57020000Y27730000D01*
X59780000Y27730000D02*
X59780000Y32920000D01*
X59780000Y26460000D02*
X59780000Y25080000D01*
X59780000Y25080000D02*
X58400000Y25080000D01*
D10*
%TO.C,SW1*%
X9500000Y26500000D02*
X9500000Y19500000D01*
X9500000Y26500000D02*
X16500000Y26500000D01*
X9500000Y19500000D02*
X16500000Y19500000D01*
X16500000Y19500000D02*
X16500000Y26500000D01*
D12*
%TO.C,U4*%
X48100000Y32987500D02*
X46150000Y32987500D01*
X48100000Y32987500D02*
X50050000Y32987500D01*
X48100000Y24117500D02*
X46150000Y24117500D01*
X48100000Y24117500D02*
X50050000Y24117500D01*
X51040000Y23852500D02*
X50560000Y23852500D01*
X50800000Y24182500D01*
X51040000Y23852500D01*
G36*
X51040000Y23852500D02*
G01*
X50560000Y23852500D01*
X50800000Y24182500D01*
X51040000Y23852500D01*
G37*
D11*
%TO.C,U2*%
X46280000Y15505000D02*
X49320000Y15505000D01*
X46280000Y10445000D02*
X46280000Y15505000D01*
X49320000Y15505000D02*
X49320000Y10445000D01*
X49320000Y10445000D02*
X46280000Y10445000D01*
X49580000Y10475000D02*
G75*
G02*
X49520000Y10475000I-30000J0D01*
G01*
X49520000Y10475000D02*
G75*
G02*
X49580000Y10475000I30000J0D01*
G01*
D13*
%TO.C,S1*%
X55200000Y9975000D02*
X55200000Y9745000D01*
X55200000Y9975000D02*
X59200000Y9975000D01*
X55200000Y7075000D02*
X55200000Y7305000D01*
X59200000Y9975000D02*
X59200000Y9745000D01*
X59200000Y7305000D02*
X59200000Y7075000D01*
X59200000Y7075000D02*
X55200000Y7075000D01*
%TD*%
M02*
